<?xml version="1.0" encoding="UTF-8" standalone="no"?>
<svg
   xmlns:dc="http://purl.org/dc/elements/1.1/"
   xmlns:cc="http://creativecommons.org/ns#"
   xmlns:rdf="http://www.w3.org/1999/02/22-rdf-syntax-ns#"
   xmlns:svg="http://www.w3.org/2000/svg"
   xmlns="http://www.w3.org/2000/svg"
   id="svg3400"
   style="position:absolute;"
   preserveAspectRatio="xMinYMin meet"
   viewBox="0 0 480 270"
   version="1.1">
  <metadata
     id="metadata3424">
    <rdf:RDF>
      <cc:Work
         rdf:about="">
        <dc:format>image/svg+xml</dc:format>
        <dc:type
           rdf:resource="http://purl.org/dc/dcmitype/StillImage" />
        <dc:title></dc:title>
      </cc:Work>
    </rdf:RDF>
  </metadata>
  <defs
     id="defs3422" />
  <g
     id="g3402"
     text-anchor="middle"
     font-family="Arial"
     font-size="15"
     fill="red">
    <g
       id="text3404"
       style="">
      <path
         id="path3427"
         style=""
         d="m 81.413574,115 -1.318359,0 0,-8.40088 q -0.476074,0.4541 -1.252442,0.9082 -0.769043,0.45411 -1.384277,0.68116 l 0,-1.27442 q 1.105957,-0.52002 1.933594,-1.25976 0.827637,-0.73975 1.171875,-1.43555 l 0.849609,0 0,10.78125 z" />
    </g>
    <g
       id="text3406"
       style="">
      <path
         id="path3430"
         style=""
         d="m 163.37646,46.73291 0,1.26709 -7.09716,0 q -0.0147,-0.476074 0.15381,-0.915527 0.27099,-0.725098 0.86425,-1.428223 0.60059,-0.703125 1.72852,-1.625977 1.75049,-1.435546 2.36572,-2.270507 0.61524,-0.842286 0.61524,-1.589356 0,-0.783691 -0.56397,-1.318359 -0.55664,-0.541992 -1.45752,-0.541992 -0.95215,0 -1.52344,0.571289 -0.57129,0.571289 -0.57861,1.582031 l -1.35498,-0.13916 q 0.13916,-1.516114 1.04736,-2.307129 0.90821,-0.79834 2.43897,-0.79834 1.54541,0 2.44629,0.856934 0.90088,0.856933 0.90088,2.124023 0,0.644531 -0.26368,1.26709 -0.26367,0.622558 -0.8789,1.311035 -0.60791,0.688477 -2.02881,1.889648 -1.18652,0.996094 -1.52344,1.354981 -0.33691,0.351562 -0.55664,0.710449 l 5.26611,0 z" />
    </g>
    <g
       id="text3408"
       style="">
      <path
         id="path3433"
         style=""
         d="m 156.45508,231.16553 1.31836,-0.17578 q 0.22705,1.1206 0.76904,1.61865 0.54932,0.49072 1.33301,0.49072 0.93017,0 1.56738,-0.64453 0.64453,-0.64453 0.64453,-1.59668 0,-0.9082 -0.59326,-1.49414 -0.59326,-0.59326 -1.50879,-0.59326 -0.37353,0 -0.93017,0.14648 l 0.14648,-1.15722 q 0.13184,0.0146 0.2124,0.0146 0.84229,0 1.51612,-0.43945 0.67382,-0.43945 0.67382,-1.35498 0,-0.7251 -0.49072,-1.20117 -0.49072,-0.47608 -1.26709,-0.47608 -0.76904,0 -1.28174,0.4834 -0.51269,0.4834 -0.65918,1.4502 l -1.31836,-0.23438 q 0.2417,-1.32568 1.09864,-2.05078 0.85693,-0.73242 2.13134,-0.73242 0.87891,0 1.61866,0.38086 0.73974,0.37353 1.12793,1.02539 0.3955,0.65186 0.3955,1.38428 0,0.6958 -0.37353,1.26709 -0.37354,0.57129 -1.10596,0.9082 0.95215,0.21973 1.47949,0.91553 0.52735,0.68847 0.52735,1.72851 0,1.40625 -1.02539,2.3877 -1.02539,0.97412 -2.59278,0.97412 -1.41357,0 -2.35107,-0.84229 -0.93018,-0.84228 -1.06201,-2.18261 z" />
    </g>
    <g
       id="text3410"
       style="">
      <path
         id="path3436"
         style=""
         d="m 250.67383,115 0,-2.5708 -4.65821,0 0,-1.2085 4.89991,-6.958 1.07666,0 0,6.958 1.45019,0 0,1.2085 -1.45019,0 0,2.5708 -1.31836,0 z m 0,-3.7793 0,-4.84131 -3.36182,4.84131 3.36182,0 z" />
    </g>
    <g
       id="text3412"
       style="">
      <path
         id="path3439"
         style=""
         d="m 316.44775,45.1875 1.38428,-0.117188 q 0.15381,1.010743 0.71045,1.523438 0.56397,0.505371 1.35498,0.505371 0.95215,0 1.61133,-0.717773 0.65918,-0.717774 0.65918,-1.904297 0,-1.12793 -0.63721,-1.779785 -0.62988,-0.651856 -1.65527,-0.651856 -0.63721,0 -1.1499,0.292969 -0.5127,0.285644 -0.80567,0.74707 l -1.23779,-0.161133 1.04004,-5.515136 5.33935,0 0,1.259765 -4.28466,0 -0.57862,2.885742 q 0.9668,-0.673828 2.02881,-0.673828 1.40625,0 2.37305,0.974121 0.96679,0.974122 0.96679,2.504883 0,1.45752 -0.8496,2.519532 -1.03272,1.30371 -2.81983,1.30371 -1.46484,0 -2.39502,-0.820312 -0.92285,-0.820313 -1.05469,-2.175293 z" />
    </g>
    <g
       id="text3414"
       style="">
      <path
         id="path3442"
         style=""
         d="m 323.28857,225.89209 -1.31103,0.10254 q -0.17578,-0.77637 -0.49805,-1.12793 -0.53467,-0.56397 -1.31836,-0.56397 -0.62988,0 -1.10595,0.35157 -0.62256,0.4541 -0.98145,1.32568 -0.35889,0.87158 -0.37353,2.48291 0.47607,-0.7251 1.16455,-1.07666 0.68847,-0.35156 1.44287,-0.35156 1.31836,0 2.24121,0.97412 0.93017,0.9668 0.93017,2.50488 0,1.01074 -0.43945,1.88233 -0.43213,0.86425 -1.19385,1.32568 -0.76172,0.46143 -1.72851,0.46143 -1.64795,0 -2.68799,-1.2085 -1.04004,-1.21582 -1.04004,-3.99902 0,-3.1128 1.1499,-4.52637 1.00342,-1.23047 2.70264,-1.23047 1.26709,0 2.07275,0.71045 0.81299,0.71045 0.97412,1.96289 z m -5.3833,4.62891 q 0,0.68115 0.28565,1.30371 0.29297,0.62256 0.81299,0.95215 0.52002,0.32226 1.0913,0.32226 0.83497,0 1.43555,-0.67383 0.60059,-0.67383 0.60059,-1.83105 0,-1.11328 -0.59326,-1.75049 -0.59327,-0.64453 -1.49414,-0.64453 -0.89356,0 -1.51612,0.64453 -0.62256,0.63721 -0.62256,1.67725 z" />
    </g>
    <g
       id="text3416"
       style="">
      <path
         id="path3445"
         style=""
         d="m 396.53564,70.668945 0,-1.26709 6.95069,0 0,1.025391 q -1.02539,1.091309 -2.03613,2.900391 -1.00342,1.809082 -1.55274,3.720703 -0.39551,1.347656 -0.50537,2.95166 l -1.35498,0 q 0.022,-1.26709 0.49805,-3.061523 0.47607,-1.794434 1.3623,-3.457032 0.89356,-1.669922 1.89697,-2.8125 l -5.25879,0 z" />
    </g>
    <g
       id="text3418"
       style="">
      <path
         id="path3448"
         style=""
         d="m 398.47656,194.17725 q -0.82031,-0.3003 -1.21582,-0.85694 -0.39551,-0.55664 -0.39551,-1.33301 0,-1.17187 0.84229,-1.97021 0.84228,-0.79834 2.24121,-0.79834 1.40625,0 2.26318,0.82031 0.85694,0.81299 0.85694,1.98487 0,0.74707 -0.39551,1.30371 -0.38818,0.54931 -1.18652,0.84961 0.98877,0.32226 1.50146,1.04004 0.52002,0.71777 0.52002,1.71386 0,1.37696 -0.97412,2.31446 -0.97412,0.9375 -2.56348,0.9375 -1.58935,0 -2.56347,-0.9375 -0.97412,-0.94483 -0.97412,-2.35108 0,-1.04736 0.52734,-1.75049 0.53467,-0.71045 1.51611,-0.96679 z m -0.26367,-2.23389 q 0,0.76172 0.49072,1.24512 0.49073,0.48339 1.27442,0.48339 0.76172,0 1.24511,-0.47607 0.49073,-0.4834 0.49073,-1.1792 0,-0.7251 -0.50537,-1.21582 -0.49805,-0.49805 -1.24512,-0.49805 -0.7544,0 -1.25244,0.4834 -0.49805,0.4834 -0.49805,1.15723 z m -0.4248,4.9585 q 0,0.56396 0.26367,1.0913 0.27099,0.52735 0.79834,0.82032 0.52734,0.28564 1.13525,0.28564 0.94483,0 1.56006,-0.60791 0.61523,-0.60791 0.61523,-1.54541 0,-0.95215 -0.6372,-1.57471 -0.62989,-0.62255 -1.58203,-0.62255 -0.93018,0 -1.54541,0.61523 -0.60791,0.61523 -0.60791,1.53809 z" />
    </g>
  </g>
</svg>
