<?xml version="1.0" encoding="UTF-8" standalone="no"?>
<svg
   xmlns:dc="http://purl.org/dc/elements/1.1/"
   xmlns:cc="http://creativecommons.org/ns#"
   xmlns:rdf="http://www.w3.org/1999/02/22-rdf-syntax-ns#"
   xmlns:svg="http://www.w3.org/2000/svg"
   xmlns="http://www.w3.org/2000/svg"
   id="svg3365"
   style="position:absolute;"
   preserveAspectRatio="xMinYMin meet"
   viewBox="0 0 480 270"
   version="1.1">
  <metadata
     id="metadata3373">
    <rdf:RDF>
      <cc:Work
         rdf:about="">
        <dc:format>image/svg+xml</dc:format>
        <dc:type
           rdf:resource="http://purl.org/dc/dcmitype/StillImage" />
        <dc:title></dc:title>
      </cc:Work>
    </rdf:RDF>
  </metadata>
  <defs
     id="defs3371" />
  <g
     id="text3367"
     style="font-size:20px;font-family:Arial;text-anchor:middle;fill:#ffffff">
    <path
       id="path3376"
       style="font-size:20px;font-family:Arial;text-anchor:middle;fill:#ffffff"
       d="m 49.042969,23.474609 q -0.0098,-0.351562 -0.0098,-0.527343 0,-1.035157 0.292969,-1.78711 0.214844,-0.566406 0.693359,-1.142578 0.351563,-0.419922 1.259766,-1.220703 0.917969,-0.810547 1.191406,-1.289063 0.273438,-0.478515 0.273438,-1.044921 0,-1.025391 -0.800782,-1.796875 -0.800781,-0.78125 -1.96289,-0.78125 -1.123047,0 -1.875,0.703125 -0.751953,0.703125 -0.986328,2.197265 L 45.3125,16.570312 q 0.244141,-2.001953 1.445312,-3.066406 1.210938,-1.064453 3.19336,-1.064453 2.099609,0 3.349609,1.142578 1.25,1.142578 1.25,2.763672 0,0.9375 -0.439453,1.728516 -0.439453,0.791015 -1.71875,1.923828 -0.859375,0.761719 -1.123047,1.123047 -0.263672,0.361328 -0.390625,0.830078 -0.126953,0.46875 -0.146484,1.523437 l -1.689453,0 z M 48.935547,27 l 0,-2.001953 2.001953,0 0,2.001953 -2.001953,0 z" />
  </g>
</svg>
