<?xml version="1.0" encoding="UTF-8" standalone="no"?>
<svg
   xmlns:dc="http://purl.org/dc/elements/1.1/"
   xmlns:cc="http://creativecommons.org/ns#"
   xmlns:rdf="http://www.w3.org/1999/02/22-rdf-syntax-ns#"
   xmlns:svg="http://www.w3.org/2000/svg"
   xmlns="http://www.w3.org/2000/svg"
   xmlns:sodipodi="http://sodipodi.sourceforge.net/DTD/sodipodi-0.dtd"
   xmlns:inkscape="http://www.inkscape.org/namespaces/inkscape"
   id="svg3365"
   style="position:absolute;"
   preserveAspectRatio="xMinYMin meet"
   viewBox="0 0 480 270"
   version="1.1"
   inkscape:version="0.91 r13725"
   sodipodi:docname="tagline_o.svg">
  <sodipodi:namedview
     pagecolor="#ffffff"
     bordercolor="#666666"
     borderopacity="1"
     objecttolerance="10"
     gridtolerance="10"
     guidetolerance="10"
     inkscape:pageopacity="0"
     inkscape:pageshadow="2"
     inkscape:window-width="750"
     inkscape:window-height="480"
     id="namedview3521"
     showgrid="false"
     inkscape:zoom="1.9291667"
     inkscape:cx="240"
     inkscape:cy="135"
     inkscape:window-x="0"
     inkscape:window-y="0"
     inkscape:window-maximized="0"
     inkscape:current-layer="svg3365" />
  <metadata
     id="metadata3373">
    <rdf:RDF>
      <cc:Work
         rdf:about="">
        <dc:format>image/svg+xml</dc:format>
        <dc:type
           rdf:resource="http://purl.org/dc/dcmitype/StillImage" />
        <dc:title />
      </cc:Work>
    </rdf:RDF>
  </metadata>
  <defs
     id="defs3371" />
  <g
     id="text3367"
     style="font-size:8px;font-family:Optima;text-anchor:start;fill:#354649">
    <path
       id="path3530"
       style="font-size:8px;font-family:Optima;text-anchor:start;fill:#354649"
       d="m 329.67162,256.64 q 0,0.184 0.136,0.312 0.136,0.12 0.32001,0.12 0.18399,0 0.32,-0.12 0.13599,-0.128 0.13599,-0.312 0,-0.184 -0.13599,-0.32 -0.13601,-0.136 -0.32,-0.136 -0.18401,0 -0.32001,0.136 -0.136,0.136 -0.136,0.32 z m -3.98399,-3.352 0,1.448 q 0,0.272 -0.008,0.592 0,0.32 -0.008,0.632 -0.008,0.312 -0.024,0.592 -0.008,0.28 -0.024,0.464 0.184,-0.016 0.36001,-0.016 0.17599,0 0.35999,0.016 -0.04,-0.344 -0.056,-0.68 -0.008,-0.344 -0.008,-0.704 l 0,-0.48 q 0,-0.096 0.08,-0.096 0.032,0 0.064,0.024 0.032,0.024 0.056,0.056 0.144,0.152 0.344,0.384 0.2,0.232 0.416,0.496 0.224,0.264 0.44801,0.536 0.224,0.264 0.39999,0.464 0.11201,-0.016 0.216,-0.016 0.104,0 0.19201,0 0.10399,0 0.20799,0 0.112,0 0.248,0.016 -0.50399,-0.536 -0.99199,-1.088 -0.48001,-0.552 -0.93601,-1.104 0.416,-0.408 0.872,-0.8 0.464,-0.4 0.96801,-0.808 -0.13601,0.016 -0.224,0.032 -0.088,0.008 -0.17601,0.008 -0.144,0 -0.304,-0.04 -0.184,0.216 -0.408,0.456 -0.224,0.24 -0.44,0.456 -0.20799,0.208 -0.384,0.368 -0.16799,0.16 -0.23999,0.216 -0.096,0.072 -0.17601,0.128 -0.072,0.056 -0.13599,0.056 -0.096,0 -0.096,-0.152 l 0,-1.456 q 0,-0.272 0,-0.592 0.008,-0.32 0.016,-0.632 0.008,-0.312 0.016,-0.592 0.016,-0.288 0.032,-0.488 -0.224,0.04 -0.35999,0.04 -0.13601,0 -0.36001,-0.04 0.016,0.2 0.024,0.488 0.016,0.28 0.024,0.592 0.008,0.312 0.008,0.632 0.008,0.32 0.008,0.592 z m -1.90913,1.48 0,0.488 q 0,0.464 -0.024,0.904 -0.016,0.44 -0.032,0.856 0.16,-0.016 0.328,-0.016 0.176,0 0.336,0.016 -0.008,-0.112 -0.016,-0.232 0,-0.128 0,-0.256 l 0,-0.52 q 0,-0.408 0.016,-0.768 0.016,-0.368 0.016,-0.712 0,-0.416 -0.12,-0.68 -0.112,-0.272 -0.296,-0.424 -0.184,-0.16 -0.416,-0.224 -0.224,-0.064 -0.448,-0.064 -0.432,0 -0.744,0.192 -0.312,0.184 -0.536,0.528 l -0.016,0 q 0,-0.32 0.024,-0.64 -0.104,0.016 -0.184,0.032 -0.072,0.008 -0.136,0.008 -0.136,0 -0.36,-0.04 0.04,0.344 0.048,0.744 0.016,0.392 0.016,0.752 l 0,0.832 q 0,0.36 -0.016,0.76 -0.008,0.392 -0.048,0.712 0.184,-0.016 0.36,-0.016 0.176,0 0.36,0.016 -0.04,-0.32 -0.056,-0.712 -0.008,-0.4 -0.008,-0.76 l 0,-0.68 q 0,-0.624 0.256,-0.968 0.264,-0.344 0.824,-0.344 0.408,0 0.64,0.312 0.232,0.304 0.232,0.904 z m -4.53638,0.256 -0.032,1.2 q -0.136,0.224 -0.392,0.392 -0.24799,0.168 -0.552,0.168 -0.264,0 -0.47999,-0.192 -0.216,-0.192 -0.216,-0.568 0,-0.224 0.08,-0.368 0.088,-0.144 0.224,-0.24 0.144,-0.096 0.32,-0.152 0.184,-0.056 0.368,-0.088 0.184,-0.04 0.36,-0.072 0.18401,-0.032 0.32,-0.08 z m -1.976,-1.424 0,0.416 0.088,0 q 0.136,-0.256 0.40801,-0.4 0.27999,-0.144 0.59999,-0.144 0.24,0 0.408,0.088 0.16801,0.08 0.272,0.216 0.104,0.136 0.152,0.32 0.048,0.184 0.048,0.384 0,0.12 -0.024,0.2 -0.024,0.072 -0.144,0.128 -0.11199,0.056 -0.35999,0.112 -0.24,0.048 -0.67201,0.12 -0.528,0.088 -0.832,0.352 -0.29599,0.264 -0.29599,0.744 0,0.232 0.088,0.416 0.096,0.176 0.24,0.304 0.152,0.128 0.344,0.184 0.192,0.056 0.392,0.056 0.408,0 0.68801,-0.136 0.27999,-0.136 0.56799,-0.424 0.024,0.208 0.16,0.344 0.136,0.128 0.39201,0.128 0.15999,0 0.28799,-0.024 0.136,-0.024 0.22401,-0.064 l 0,-0.176 q -0.04,0.024 -0.088,0.032 -0.04,0 -0.08,0 -0.12,0 -0.18401,-0.056 -0.056,-0.056 -0.088,-0.136 -0.032,-0.088 -0.04,-0.192 0,-0.112 0,-0.208 0,-0.504 0.016,-0.952 0.016,-0.456 0.016,-0.912 0,-0.264 -0.096,-0.48 -0.096,-0.224 -0.264,-0.376 -0.16799,-0.16 -0.40799,-0.24 -0.24001,-0.088 -0.52801,-0.088 -0.32,0 -0.624,0.096 -0.304,0.096 -0.664,0.368 z m -4.13862,1.488 0,-0.816 0.36,0 q 0.4,0 0.72,0.048 0.328,0.048 0.56,0.176 0.232,0.12 0.352,0.344 0.128,0.216 0.128,0.56 0,0.32 -0.104,0.576 -0.104,0.248 -0.28,0.424 -0.176,0.168 -0.416,0.256 -0.232,0.088 -0.488,0.088 -0.216,0 -0.424,-0.008 -0.208,-0.016 -0.36,-0.032 -0.016,-0.408 -0.032,-0.808 -0.016,-0.4 -0.016,-0.808 z m 0.432,-1.112 -0.432,0 0,-0.6 q 0,-0.384 0.016,-0.76 0.016,-0.376 0.032,-0.76 0.112,-0.016 0.256,-0.024 0.144,-0.016 0.352,-0.016 0.232,0 0.464,0.04 0.232,0.032 0.416,0.144 0.184,0.104 0.304,0.304 0.12,0.192 0.12,0.52 0,0.336 -0.136,0.56 -0.128,0.216 -0.344,0.352 -0.216,0.128 -0.496,0.184 -0.272,0.056 -0.552,0.056 z m -1.088,-0.392 0,1.376 q 0,0.528 -0.024,1.04 -0.016,0.504 -0.04,1.016 0.192,-0.016 0.384,-0.016 0.2,0 0.392,0 0.192,0 0.384,0.008 0.2,0.008 0.392,0.008 0.352,0 0.704,-0.072 0.36,-0.08 0.656,-0.264 0.296,-0.192 0.48,-0.496 0.184,-0.304 0.184,-0.752 0,-0.688 -0.416,-1 -0.408,-0.312 -1.12,-0.344 l 0,-0.016 q 0.6,-0.136 0.968,-0.472 0.376,-0.336 0.376,-0.928 0,-0.336 -0.136,-0.56 -0.136,-0.224 -0.368,-0.352 -0.232,-0.136 -0.536,-0.184 -0.304,-0.056 -0.648,-0.056 -0.208,0 -0.424,0.024 -0.216,0.016 -0.424,0.016 -0.208,0 -0.424,-0.008 -0.216,-0.016 -0.424,-0.032 0.024,0.512 0.04,1.024 0.024,0.512 0.024,1.04 z m -3.23463,0.288 0.056,-0.04 q 0,-0.16 0.008,-0.352 0.008,-0.2 0.048,-0.296 -0.08,-0.032 -0.13601,-0.04 -0.048,-0.008 -0.12,-0.008 -0.584,0 -1.056,0.864 l -0.016,-0.008 q 0,-0.152 0,-0.32 0.008,-0.168 0.04,-0.456 -0.088,0.016 -0.168,0.032 -0.08,0.008 -0.15199,0.008 -0.088,0 -0.16801,-0.008 -0.08,-0.016 -0.168,-0.032 0.024,0.528 0.024,0.936 0.008,0.408 0.008,0.72 l 0,0.256 q 0,0.68 -0.008,1.152 0,0.464 -0.024,0.736 0.16,-0.016 0.33601,-0.016 0.15999,0 0.31999,0.016 -0.024,-0.176 -0.032,-0.456 0,-0.288 0,-0.824 l 0,-0.88 q 0,-0.232 0.056,-0.432 0.056,-0.208 0.16,-0.352 0.10401,-0.152 0.256,-0.24 0.152,-0.088 0.344,-0.088 0.12,0 0.232,0.04 0.12,0.04 0.16,0.088 z m -4.29637,-0.48 q 0.312,0 0.504,0.136 0.192,0.136 0.296,0.344 0.112,0.208 0.144,0.448 0.04,0.24 0.04,0.456 -0.256,0.008 -0.528,0.016 -0.272,0.008 -0.536,0.008 -0.256,0 -0.528,-0.008 -0.264,-0.008 -0.512,-0.016 0.016,-0.216 0.08,-0.456 0.072,-0.248 0.2,-0.448 0.136,-0.208 0.336,-0.344 0.208,-0.136 0.504,-0.136 z m -1.848,1.848 q 0,0.4 0.136,0.744 0.144,0.344 0.4,0.6 0.264,0.248 0.616,0.384 0.36,0.128 0.792,0.128 0.384,0 0.736,-0.136 0.36,-0.136 0.6,-0.328 l 0.048,-0.392 -0.04,-0.024 q -0.104,0.12 -0.248,0.224 -0.136,0.104 -0.296,0.184 -0.16,0.072 -0.328,0.12 -0.168,0.04 -0.328,0.04 -0.336,0 -0.592,-0.112 -0.256,-0.12 -0.432,-0.312 -0.176,-0.2 -0.272,-0.472 -0.088,-0.272 -0.088,-0.584 l 0,-0.104 q 0,-0.08 0.008,-0.12 0.264,-0.008 0.52,-0.016 0.264,-0.008 0.528,-0.008 0.432,0 0.856,0.008 0.424,0.008 0.856,0.016 0.008,-0.08 0.008,-0.152 0.008,-0.08 0.008,-0.16 0,-0.336 -0.104,-0.632 -0.096,-0.296 -0.304,-0.512 -0.208,-0.224 -0.52,-0.352 -0.304,-0.136 -0.728,-0.136 -0.896,0 -1.368,0.56 -0.464,0.56 -0.464,1.544 z m -3.6775,-0.04 q 0,-0.36 0.064,-0.672 0.072,-0.32 0.208,-0.552 0.144,-0.24 0.352,-0.368 0.216,-0.136 0.504,-0.136 0.576,0 0.872,0.408 0.296,0.4 0.296,1.168 0,0.32 -0.072,0.64 -0.064,0.32 -0.216,0.576 -0.144,0.248 -0.368,0.408 -0.224,0.152 -0.536,0.152 -0.192,0 -0.392,-0.072 -0.2,-0.072 -0.36,-0.256 -0.152,-0.192 -0.256,-0.504 -0.096,-0.312 -0.096,-0.792 z m 2.288,1.056 -0.024,0.76 q 0.16,-0.016 0.304,-0.016 0.152,0 0.312,0.016 -0.008,-0.464 -0.016,-0.904 -0.008,-0.44 -0.008,-0.992 0,-0.512 0.008,-1.128 0.008,-0.616 0.016,-1.2 0.016,-0.584 0.032,-1.064 0.016,-0.488 0.04,-0.744 -0.104,0.016 -0.192,0.032 -0.08,0.008 -0.168,0.008 -0.088,0 -0.176,-0.008 -0.088,-0.016 -0.184,-0.032 0.008,0.192 0.008,0.44 0.008,0.248 0.008,0.528 0.008,0.28 0.008,0.592 0.008,0.304 0.008,0.608 l 0,0.784 -0.016,0 q -0.344,-0.8 -1.232,-0.8 -0.312,0 -0.624,0.128 -0.304,0.12 -0.552,0.376 -0.24,0.248 -0.392,0.624 -0.152,0.376 -0.152,0.888 0,0.52 0.136,0.896 0.144,0.368 0.368,0.608 0.232,0.232 0.52,0.336 0.296,0.104 0.6,0.104 0.296,0 0.52,-0.08 0.224,-0.08 0.384,-0.208 0.168,-0.128 0.272,-0.272 0.112,-0.152 0.176,-0.28 l 0.016,0 z m -4.56513,-1.488 0,0.488 q 0,0.464 -0.024,0.904 -0.016,0.44 -0.032,0.856 0.15999,-0.016 0.32799,-0.016 0.176,0 0.336,0.016 -0.008,-0.112 -0.016,-0.232 0,-0.128 0,-0.256 l 0,-0.52 q 0,-0.408 0.016,-0.768 0.016,-0.368 0.016,-0.712 0,-0.416 -0.11999,-0.68 -0.11201,-0.272 -0.29601,-0.424 -0.184,-0.16 -0.416,-0.224 -0.224,-0.064 -0.448,-0.064 -0.432,0 -0.744,0.192 -0.31199,0.184 -0.536,0.528 l -0.016,0 q 0,-0.32 0.024,-0.64 -0.10399,0.016 -0.184,0.032 -0.072,0.008 -0.13599,0.008 -0.13601,0 -0.36001,-0.04 0.04,0.344 0.048,0.744 0.016,0.392 0.016,0.752 l 0,0.832 q 0,0.36 -0.016,0.76 -0.008,0.392 -0.048,0.712 0.184,-0.016 0.36001,-0.016 0.17599,0 0.35999,0.016 -0.04,-0.32 -0.056,-0.712 -0.008,-0.4 -0.008,-0.76 l 0,-0.68 q 0,-0.624 0.256,-0.968 0.264,-0.344 0.824,-0.344 0.408,0 0.64,0.312 0.232,0.304 0.232,0.904 z m -4.53637,0.256 -0.032,1.2 q -0.136,0.224 -0.392,0.392 -0.248,0.168 -0.552,0.168 -0.264,0 -0.48,-0.192 -0.216,-0.192 -0.216,-0.568 0,-0.224 0.08,-0.368 0.088,-0.144 0.224,-0.24 0.144,-0.096 0.32,-0.152 0.184,-0.056 0.368,-0.088 0.184,-0.04 0.36,-0.072 0.184,-0.032 0.32,-0.08 z m -1.976,-1.424 0,0.416 0.088,0 q 0.136,-0.256 0.408,-0.4 0.28,-0.144 0.6,-0.144 0.24,0 0.408,0.088 0.168,0.08 0.272,0.216 0.104,0.136 0.152,0.32 0.048,0.184 0.048,0.384 0,0.12 -0.024,0.2 -0.024,0.072 -0.144,0.128 -0.112,0.056 -0.36,0.112 -0.24,0.048 -0.672,0.12 -0.528,0.088 -0.832,0.352 -0.296,0.264 -0.296,0.744 0,0.232 0.088,0.416 0.096,0.176 0.24,0.304 0.152,0.128 0.344,0.184 0.192,0.056 0.392,0.056 0.408,0 0.688,-0.136 0.28,-0.136 0.568,-0.424 0.024,0.208 0.16,0.344 0.136,0.128 0.392,0.128 0.16,0 0.288,-0.024 0.136,-0.024 0.224,-0.064 l 0,-0.176 q -0.04,0.024 -0.088,0.032 -0.04,0 -0.08,0 -0.12,0 -0.184,-0.056 -0.056,-0.056 -0.088,-0.136 -0.032,-0.088 -0.04,-0.192 0,-0.112 0,-0.208 0,-0.504 0.016,-0.952 0.016,-0.456 0.016,-0.912 0,-0.264 -0.096,-0.48 -0.096,-0.224 -0.264,-0.376 -0.168,-0.16 -0.408,-0.24 -0.24,-0.088 -0.528,-0.088 -0.32,0 -0.624,0.096 -0.304,0.096 -0.664,0.368 z m -1.62638,-1.456 -0.664,0.28 q 0.016,0.256 0.016,0.496 0.008,0.24 0.016,0.4 -0.168,0 -0.52799,-0.024 0.008,0.04 0.008,0.08 0.008,0.04 0.008,0.08 0,0.048 -0.008,0.096 0,0.04 -0.008,0.088 0.08,-0.008 0.15199,-0.008 0.072,-0.008 0.136,-0.008 l 0.256,0 q 0,0.448 -0.008,0.816 -0.008,0.36 -0.024,0.664 -0.008,0.296 -0.016,0.552 -0.008,0.248 -0.008,0.464 0,0.48 0.23999,0.728 0.24,0.248 0.744,0.248 0.152,0 0.31201,-0.04 0.168,-0.032 0.30399,-0.056 l 0,-0.192 q -0.08,0.024 -0.192,0.04 -0.104,0.016 -0.168,0.016 -0.23999,0 -0.368,-0.104 -0.128,-0.104 -0.192,-0.272 -0.064,-0.176 -0.08,-0.392 -0.008,-0.216 -0.008,-0.44 0,-0.264 0,-0.6 0.008,-0.336 0.016,-0.64 0.008,-0.312 0.016,-0.536 0.016,-0.224 0.024,-0.256 l 0.392,0 q 0.128,0 0.24,0.008 0.11201,0 0.216,0.008 -0.008,-0.024 -0.008,-0.08 l 0,-0.088 0,-0.08 q 0,-0.064 0.008,-0.088 -0.28,0.016 -0.51999,0.024 -0.24,0 -0.32801,0 0.016,-0.296 0.024,-0.584 0.016,-0.296 0.04,-0.6 l -0.04,0 z m -2.53312,2.624 0,0.488 q 0,0.464 -0.024,0.904 -0.016,0.44 -0.032,0.856 0.16,-0.016 0.328,-0.016 0.176,0 0.336,0.016 -0.008,-0.112 -0.016,-0.232 0,-0.128 0,-0.256 l 0,-0.52 q 0,-0.408 0.016,-0.768 0.016,-0.368 0.016,-0.712 0,-0.416 -0.12,-0.68 -0.112,-0.272 -0.296,-0.424 -0.184,-0.16 -0.416,-0.224 -0.224,-0.064 -0.448,-0.064 -0.432,0 -0.744,0.192 -0.312,0.184 -0.536,0.528 l -0.016,0 q 0,-0.32 0.024,-0.64 -0.104,0.016 -0.184,0.032 -0.072,0.008 -0.136,0.008 -0.136,0 -0.36,-0.04 0.04,0.344 0.048,0.744 0.016,0.392 0.016,0.752 l 0,0.832 q 0,0.36 -0.016,0.76 -0.008,0.392 -0.048,0.712 0.184,-0.016 0.36,-0.016 0.176,0 0.36,0.016 -0.04,-0.32 -0.056,-0.712 -0.008,-0.4 -0.008,-0.76 l 0,-0.68 q 0,-0.624 0.256,-0.968 0.264,-0.344 0.824,-0.344 0.408,0 0.64,0.312 0.232,0.304 0.232,0.904 z m -4.53638,0.256 -0.032,1.2 q -0.136,0.224 -0.392,0.392 -0.24799,0.168 -0.552,0.168 -0.264,0 -0.47999,-0.192 -0.216,-0.192 -0.216,-0.568 0,-0.224 0.08,-0.368 0.088,-0.144 0.224,-0.24 0.144,-0.096 0.32,-0.152 0.184,-0.056 0.368,-0.088 0.184,-0.04 0.36,-0.072 0.18401,-0.032 0.32,-0.08 z m -1.976,-1.424 0,0.416 0.088,0 q 0.136,-0.256 0.40801,-0.4 0.27999,-0.144 0.59999,-0.144 0.24,0 0.408,0.088 0.16801,0.08 0.272,0.216 0.104,0.136 0.152,0.32 0.048,0.184 0.048,0.384 0,0.12 -0.024,0.2 -0.024,0.072 -0.144,0.128 -0.11199,0.056 -0.35999,0.112 -0.24,0.048 -0.67201,0.12 -0.528,0.088 -0.832,0.352 -0.29599,0.264 -0.29599,0.744 0,0.232 0.088,0.416 0.096,0.176 0.24,0.304 0.152,0.128 0.344,0.184 0.192,0.056 0.392,0.056 0.408,0 0.68801,-0.136 0.27999,-0.136 0.56799,-0.424 0.024,0.208 0.16,0.344 0.136,0.128 0.39201,0.128 0.15999,0 0.28799,-0.024 0.136,-0.024 0.22401,-0.064 l 0,-0.176 q -0.04,0.024 -0.088,0.032 -0.04,0 -0.08,0 -0.12,0 -0.18401,-0.056 -0.056,-0.056 -0.088,-0.136 -0.032,-0.088 -0.04,-0.192 0,-0.112 0,-0.208 0,-0.504 0.016,-0.952 0.016,-0.456 0.016,-0.912 0,-0.264 -0.096,-0.48 -0.096,-0.224 -0.264,-0.376 -0.16799,-0.16 -0.40799,-0.24 -0.24001,-0.088 -0.52801,-0.088 -0.32,0 -0.624,0.096 -0.304,0.096 -0.664,0.368 z m -4.08,2.376 -0.096,0 q -0.024,0.232 -0.056,0.384 -0.024,0.144 -0.096,0.328 0.20799,0.168 0.512,0.304 0.312,0.128 0.80799,0.128 0.464,0 0.82401,-0.128 0.368,-0.136 0.61599,-0.376 0.256,-0.248 0.38401,-0.576 0.13599,-0.328 0.13599,-0.696 0,-0.44 -0.192,-0.704 -0.184,-0.264 -0.464,-0.432 -0.28,-0.168 -0.608,-0.28 -0.32,-0.12 -0.6,-0.264 -0.28,-0.152 -0.472,-0.368 -0.184,-0.216 -0.184,-0.592 0,-0.216 0.072,-0.4 0.08,-0.184 0.21601,-0.312 0.144,-0.136 0.32799,-0.208 0.192,-0.072 0.416,-0.072 0.224,0 0.384,0.08 0.16001,0.072 0.272,0.184 0.12,0.112 0.18401,0.248 0.072,0.128 0.11199,0.24 l 0.096,0 q 0.048,-0.232 0.096,-0.384 0.048,-0.152 0.12,-0.288 -0.24,-0.192 -0.51999,-0.28 -0.28001,-0.096 -0.664,-0.096 -0.40001,0 -0.72001,0.112 -0.32,0.112 -0.552,0.312 -0.224,0.2 -0.344,0.48 -0.12,0.272 -0.12,0.608 0,0.472 0.184,0.752 0.19201,0.28 0.472,0.464 0.28001,0.176 0.6,0.296 0.328,0.12 0.60801,0.264 0.27999,0.144 0.46399,0.36 0.19201,0.216 0.19201,0.584 0,0.24 -0.08,0.456 -0.08,0.208 -0.232,0.368 -0.144,0.152 -0.36,0.248 -0.20799,0.088 -0.47199,0.088 -0.25601,0 -0.464,-0.072 -0.20801,-0.08 -0.368,-0.2 -0.15201,-0.12 -0.26401,-0.264 -0.10399,-0.152 -0.168,-0.296 z m -2.75712,-4.328 0.048,-0.024 q 0,-0.16 0.008,-0.32 0.016,-0.16 0.024,-0.32 -0.072,-0.024 -0.16,-0.024 -0.232,0 -0.456,0.112 -0.216,0.112 -0.36,0.256 -0.16,0.16 -0.288,0.4 -0.128,0.232 -0.224,0.496 -0.088,0.264 -0.136,0.536 -0.048,0.272 -0.048,0.504 -0.136,0 -0.288,0 -0.144,-0.008 -0.288,-0.008 0.008,0.04 0.008,0.08 0.008,0.04 0.008,0.08 0,0.04 -0.008,0.08 0,0.04 -0.008,0.08 0.144,-0.008 0.288,-0.016 0.144,-0.008 0.288,-0.008 0,0.888 -0.008,1.744 -0.008,0.848 -0.064,1.72 0.184,-0.016 0.352,-0.016 0.08,0 0.168,0 0.088,0 0.176,0.016 -0.024,-0.872 -0.032,-1.728 0,-0.864 0,-1.736 0.208,0 0.408,0.008 0.208,0.008 0.416,0.016 -0.008,-0.04 -0.016,-0.08 0,-0.04 0,-0.08 0,-0.04 0,-0.08 0.008,-0.04 0.016,-0.08 -0.208,0 -0.416,0.008 -0.2,0 -0.408,0 -0.04,-0.248 -0.072,-0.52 -0.024,-0.272 -0.024,-0.416 0,-0.16 0.032,-0.304 0.04,-0.144 0.12,-0.248 0.08,-0.112 0.2,-0.176 0.128,-0.072 0.304,-0.072 0.248,0 0.44,0.12 z m -5.77313,3.48 q 0,-0.336 0.056,-0.648 0.064,-0.312 0.20799,-0.552 0.144,-0.248 0.384,-0.392 0.24001,-0.144 0.592,-0.144 0.35201,0 0.592,0.144 0.24,0.144 0.384,0.392 0.144,0.24 0.2,0.552 0.064,0.312 0.064,0.648 0,0.336 -0.064,0.648 -0.056,0.312 -0.2,0.56 -0.144,0.24 -0.384,0.384 -0.23999,0.144 -0.592,0.144 -0.35199,0 -0.592,-0.144 -0.24,-0.144 -0.384,-0.384 -0.144,-0.248 -0.20799,-0.56 -0.056,-0.312 -0.056,-0.648 z m -0.704,0 q 0,0.544 0.168,0.928 0.17601,0.376 0.456,0.616 0.28001,0.232 0.62401,0.328 0.35199,0.096 0.69599,0.096 0.35201,0 0.69601,-0.096 0.34399,-0.096 0.62399,-0.328 0.28,-0.24 0.44801,-0.616 0.17599,-0.384 0.17599,-0.928 0,-0.544 -0.17599,-0.92 -0.16801,-0.384 -0.44801,-0.616 -0.28,-0.24 -0.62399,-0.344 -0.344,-0.112 -0.69601,-0.112 -0.344,0 -0.69599,0.112 -0.344,0.104 -0.62401,0.344 -0.27999,0.232 -0.456,0.616 -0.168,0.376 -0.168,0.92 z m -3.43712,-2.984 -0.664,0.28 q 0.016,0.256 0.016,0.496 0.008,0.24 0.016,0.4 -0.168,0 -0.528,-0.024 0.008,0.04 0.008,0.08 0.008,0.04 0.008,0.08 0,0.048 -0.008,0.096 0,0.04 -0.008,0.088 0.08,-0.008 0.152,-0.008 0.072,-0.008 0.136,-0.008 l 0.256,0 q 0,0.448 -0.008,0.816 -0.008,0.36 -0.024,0.664 -0.008,0.296 -0.016,0.552 -0.008,0.248 -0.008,0.464 0,0.48 0.24,0.728 0.24,0.248 0.744,0.248 0.152,0 0.312,-0.04 0.168,-0.032 0.304,-0.056 l 0,-0.192 q -0.08,0.024 -0.192,0.04 -0.104,0.016 -0.168,0.016 -0.24,0 -0.368,-0.104 -0.128,-0.104 -0.192,-0.272 -0.064,-0.176 -0.08,-0.392 -0.008,-0.216 -0.008,-0.44 0,-0.264 0,-0.6 0.008,-0.336 0.016,-0.64 0.008,-0.312 0.016,-0.536 0.016,-0.224 0.024,-0.256 l 0.392,0 q 0.128,0 0.24,0.008 0.112,0 0.216,0.008 -0.008,-0.024 -0.008,-0.08 l 0,-0.088 0,-0.08 q 0,-0.064 0.008,-0.088 -0.28,0.016 -0.52,0.024 -0.24,0 -0.328,0 0.016,-0.296 0.024,-0.584 0.016,-0.296 0.04,-0.6 l -0.04,0 z m -1.52788,1.728 0.056,-0.04 q 0,-0.16 0.008,-0.352 0.008,-0.2 0.048,-0.296 -0.08,-0.032 -0.13601,-0.04 -0.048,-0.008 -0.12,-0.008 -0.584,0 -1.056,0.864 l -0.016,-0.008 q 0,-0.152 0,-0.32 0.008,-0.168 0.04,-0.456 -0.088,0.016 -0.168,0.032 -0.08,0.008 -0.15199,0.008 -0.088,0 -0.16801,-0.008 -0.08,-0.016 -0.168,-0.032 0.024,0.528 0.024,0.936 0.008,0.408 0.008,0.72 l 0,0.256 q 0,0.68 -0.008,1.152 0,0.464 -0.024,0.736 0.16,-0.016 0.33601,-0.016 0.15999,0 0.31999,0.016 -0.024,-0.176 -0.032,-0.456 0,-0.288 0,-0.824 l 0,-0.88 q 0,-0.232 0.056,-0.432 0.056,-0.208 0.16,-0.352 0.10401,-0.152 0.256,-0.24 0.152,-0.088 0.344,-0.088 0.12,0 0.232,0.04 0.12,0.04 0.16,0.088 z m -5.90912,1.256 q 0,-0.336 0.056,-0.648 0.064,-0.312 0.208,-0.552 0.144,-0.248 0.384,-0.392 0.24,-0.144 0.592,-0.144 0.352,0 0.592,0.144 0.24,0.144 0.384,0.392 0.144,0.24 0.2,0.552 0.064,0.312 0.064,0.648 0,0.336 -0.064,0.648 -0.056,0.312 -0.2,0.56 -0.144,0.24 -0.384,0.384 -0.24,0.144 -0.592,0.144 -0.352,0 -0.592,-0.144 -0.24,-0.144 -0.384,-0.384 -0.144,-0.248 -0.208,-0.56 -0.056,-0.312 -0.056,-0.648 z m -0.704,0 q 0,0.544 0.168,0.928 0.176,0.376 0.456,0.616 0.28,0.232 0.624,0.328 0.352,0.096 0.696,0.096 0.352,0 0.696,-0.096 0.344,-0.096 0.624,-0.328 0.28,-0.24 0.448,-0.616 0.176,-0.384 0.176,-0.928 0,-0.544 -0.176,-0.92 -0.168,-0.384 -0.448,-0.616 -0.28,-0.24 -0.624,-0.344 -0.344,-0.112 -0.696,-0.112 -0.344,0 -0.696,0.112 -0.344,0.104 -0.624,0.344 -0.28,0.232 -0.456,0.616 -0.168,0.376 -0.168,0.92 z m -4.21313,0.416 0,1.296 q 0,0.256 -0.008,0.568 0,0.32 -0.008,0.632 -0.008,0.312 -0.024,0.592 -0.008,0.288 -0.024,0.488 0.224,-0.04 0.36,-0.04 0.136,0 0.36,0.04 -0.016,-0.2 -0.032,-0.488 -0.008,-0.28 -0.016,-0.592 -0.008,-0.312 -0.016,-0.632 0,-0.312 0,-0.568 l 0,-0.504 0.016,0 q 0.376,0.76 1.256,0.76 0.312,0 0.624,-0.112 0.312,-0.12 0.552,-0.368 0.248,-0.248 0.4,-0.624 0.152,-0.376 0.152,-0.888 0,-0.512 -0.144,-0.88 -0.136,-0.376 -0.368,-0.616 -0.224,-0.24 -0.52,-0.352 -0.296,-0.12 -0.6,-0.12 -0.296,0 -0.528,0.088 -0.232,0.088 -0.4,0.224 -0.16,0.128 -0.264,0.28 -0.104,0.144 -0.16,0.272 l -0.016,0 q 0,-0.192 0.016,-0.384 0.016,-0.192 0.048,-0.4 -0.224,0.04 -0.36,0.04 -0.136,0 -0.36,-0.04 0.016,0.208 0.024,0.496 0.016,0.288 0.024,0.608 0.008,0.312 0.008,0.632 0.008,0.32 0.008,0.592 z m 2.888,-0.448 q 0,0.36 -0.072,0.68 -0.064,0.312 -0.20801,0.552 -0.136,0.232 -0.352,0.368 -0.208,0.128 -0.496,0.128 -1.168,0 -1.168,-1.664 0,-0.344 0.064,-0.648 0.064,-0.312 0.208,-0.536 0.144,-0.232 0.368,-0.368 0.232,-0.136 0.552,-0.136 0.192,0 0.392,0.072 0.2,0.072 0.352,0.264 0.16,0.184 0.256,0.496 0.104,0.312 0.104,0.792 z m -7.34112,0.448 0,1.296 q 0,0.256 -0.008,0.568 0,0.32 -0.008,0.632 -0.008,0.312 -0.024,0.592 -0.008,0.288 -0.024,0.488 0.224,-0.04 0.36,-0.04 0.136,0 0.36,0.04 -0.016,-0.2 -0.032,-0.488 -0.008,-0.28 -0.016,-0.592 -0.008,-0.312 -0.016,-0.632 0,-0.312 0,-0.568 l 0,-0.504 0.016,0 q 0.376,0.76 1.256,0.76 0.312,0 0.624,-0.112 0.312,-0.12 0.552,-0.368 0.248,-0.248 0.4,-0.624 0.152,-0.376 0.152,-0.888 0,-0.512 -0.144,-0.88 -0.136,-0.376 -0.368,-0.616 -0.224,-0.24 -0.52,-0.352 -0.296,-0.12 -0.6,-0.12 -0.296,0 -0.528,0.088 -0.232,0.088 -0.4,0.224 -0.16,0.128 -0.264,0.28 -0.104,0.144 -0.16,0.272 l -0.016,0 q 0,-0.192 0.016,-0.384 0.016,-0.192 0.048,-0.4 -0.224,0.04 -0.36,0.04 -0.136,0 -0.36,-0.04 0.016,0.208 0.024,0.496 0.016,0.288 0.024,0.608 0.008,0.312 0.008,0.632 0.008,0.32 0.008,0.592 z m 2.888,-0.448 q 0,0.36 -0.072,0.68 -0.064,0.312 -0.208,0.552 -0.136,0.232 -0.352,0.368 -0.208,0.128 -0.496,0.128 -1.168,0 -1.168,-1.664 0,-0.344 0.064,-0.648 0.064,-0.312 0.208,-0.536 0.144,-0.232 0.368,-0.368 0.232,-0.136 0.552,-0.136 0.192,0 0.392,0.072 0.2,0.072 0.352,0.264 0.16,0.184 0.256,0.496 0.104,0.312 0.104,0.792 z m -7.2375,0.712 q 0,0.624 0.352,0.96 0.36,0.328 0.984,0.328 0.384,0 0.712,-0.176 0.328,-0.184 0.536,-0.568 l 0.016,0 0,0.344 q 0,0.088 -0.008,0.168 0,0.08 -0.008,0.152 0.16,-0.016 0.312,-0.016 0.152,0 0.312,0.016 -0.016,-0.32 -0.024,-0.664 -0.008,-0.344 -0.008,-0.704 0,-0.648 0.008,-1.224 0.008,-0.584 0.048,-1.208 -0.08,0.016 -0.16,0.032 -0.08,0.008 -0.168,0.008 -0.088,0 -0.168,-0.008 -0.08,-0.016 -0.168,-0.032 0.008,0.144 0.008,0.304 0.008,0.16 0.008,0.336 l 0,0.672 q 0,0.472 -0.008,0.744 0,0.272 -0.024,0.432 -0.016,0.16 -0.048,0.256 -0.032,0.096 -0.088,0.232 -0.104,0.216 -0.328,0.368 -0.224,0.144 -0.56,0.144 -0.232,0 -0.408,-0.08 -0.168,-0.088 -0.28,-0.216 -0.104,-0.112 -0.176,-0.328 -0.072,-0.224 -0.072,-0.64 0,-0.6 0.016,-1.168 0.024,-0.576 0.064,-1.056 -0.2,0.04 -0.328,0.04 -0.136,0 -0.336,-0.04 0.008,0.336 0.008,0.664 0.008,0.328 0.008,0.608 0,0.296 -0.016,0.6 -0.008,0.296 -0.008,0.72 z m -3.14938,0.464 -0.096,0 q 0,0.12 -0.056,0.304 -0.048,0.176 -0.096,0.28 0.168,0.096 0.416,0.168 0.248,0.072 0.616,0.072 0.336,0 0.6,-0.096 0.264,-0.104 0.448,-0.28 0.19201,-0.184 0.288,-0.408 0.104,-0.224 0.104,-0.456 0,-0.336 -0.144,-0.528 -0.136,-0.192 -0.344,-0.296 -0.208,-0.112 -0.45599,-0.168 -0.24801,-0.064 -0.45601,-0.144 -0.208,-0.08 -0.352,-0.216 -0.136,-0.144 -0.136,-0.4 0,-0.176 0.064,-0.304 0.064,-0.128 0.16,-0.208 0.096,-0.08 0.216,-0.12 0.12,-0.04 0.24,-0.04 0.272,0 0.456,0.152 0.184,0.152 0.248,0.344 l 0.096,0 q 0.016,-0.096 0.072,-0.272 0.056,-0.176 0.12,-0.296 -0.184,-0.064 -0.392,-0.144 -0.2,-0.08 -0.496,-0.08 -0.32,0 -0.568,0.096 -0.24799,0.088 -0.416,0.248 -0.168,0.16 -0.256,0.384 -0.088,0.216 -0.088,0.48 0,0.336 0.13599,0.528 0.144,0.192 0.35201,0.312 0.20799,0.112 0.45599,0.176 0.248,0.064 0.456,0.152 0.208,0.08 0.34401,0.216 0.14399,0.128 0.14399,0.376 0,0.176 -0.064,0.312 -0.064,0.136 -0.176,0.224 -0.104,0.088 -0.248,0.136 -0.136,0.048 -0.288,0.048 -0.168,0 -0.32,-0.056 -0.144,-0.056 -0.264,-0.136 -0.112,-0.088 -0.2,-0.184 -0.08,-0.096 -0.12,-0.176 z m -5.32812,0 -0.096,0 q 0,0.12 -0.056,0.304 -0.048,0.176 -0.096,0.28 0.168,0.096 0.416,0.168 0.248,0.072 0.616,0.072 0.336,0 0.6,-0.096 0.264,-0.104 0.448,-0.28 0.192,-0.184 0.288,-0.408 0.104,-0.224 0.104,-0.456 0,-0.336 -0.144,-0.528 -0.136,-0.192 -0.344,-0.296 -0.208,-0.112 -0.456,-0.168 -0.248,-0.064 -0.456,-0.144 -0.208,-0.08 -0.352,-0.216 -0.136,-0.144 -0.136,-0.4 0,-0.176 0.064,-0.304 0.064,-0.128 0.16,-0.208 0.096,-0.08 0.216,-0.12 0.12,-0.04 0.24,-0.04 0.272,0 0.456,0.152 0.184,0.152 0.248,0.344 l 0.096,0 q 0.016,-0.096 0.072,-0.272 0.056,-0.176 0.12,-0.296 -0.184,-0.064 -0.392,-0.144 -0.2,-0.08 -0.496,-0.08 -0.32,0 -0.568,0.096 -0.248,0.088 -0.416,0.248 -0.168,0.16 -0.256,0.384 -0.088,0.216 -0.088,0.48 0,0.336 0.136,0.528 0.144,0.192 0.352,0.312 0.208,0.112 0.456,0.176 0.248,0.064 0.456,0.152 0.208,0.08 0.344,0.216 0.144,0.128 0.144,0.376 0,0.176 -0.064,0.312 -0.064,0.136 -0.176,0.224 -0.104,0.088 -0.248,0.136 -0.136,0.048 -0.288,0.048 -0.168,0 -0.32,-0.056 -0.144,-0.056 -0.264,-0.136 -0.112,-0.088 -0.2,-0.184 -0.08,-0.096 -0.12,-0.176 z m -4.3975,-0.464 q 0,0.624 0.352,0.96 0.36,0.328 0.984,0.328 0.384,0 0.712,-0.176 0.328,-0.184 0.536,-0.568 l 0.016,0 0,0.344 q 0,0.088 -0.008,0.168 0,0.08 -0.008,0.152 0.16,-0.016 0.312,-0.016 0.152,0 0.312,0.016 -0.016,-0.32 -0.024,-0.664 -0.008,-0.344 -0.008,-0.704 0,-0.648 0.008,-1.224 0.008,-0.584 0.048,-1.208 -0.08,0.016 -0.16,0.032 -0.08,0.008 -0.168,0.008 -0.088,0 -0.168,-0.008 -0.08,-0.016 -0.168,-0.032 0.008,0.144 0.008,0.304 0.008,0.16 0.008,0.336 l 0,0.672 q 0,0.472 -0.008,0.744 0,0.272 -0.024,0.432 -0.016,0.16 -0.048,0.256 -0.032,0.096 -0.088,0.232 -0.104,0.216 -0.328,0.368 -0.224,0.144 -0.56,0.144 -0.232,0 -0.408,-0.08 -0.168,-0.088 -0.28,-0.216 -0.104,-0.112 -0.176,-0.328 -0.072,-0.224 -0.072,-0.64 0,-0.6 0.016,-1.168 0.024,-0.576 0.064,-1.056 -0.2,0.04 -0.328,0.04 -0.136,0 -0.336,-0.04 0.008,0.336 0.008,0.664 0.008,0.328 0.008,0.608 0,0.296 -0.016,0.6 -0.008,0.296 -0.008,0.72 z m -4.07713,-0.68 q 0,-0.336 0.056,-0.648 0.064,-0.312 0.208,-0.552 0.144,-0.248 0.384,-0.392 0.24001,-0.144 0.592,-0.144 0.352,0 0.592,0.144 0.24,0.144 0.384,0.392 0.144,0.24 0.2,0.552 0.064,0.312 0.064,0.648 0,0.336 -0.064,0.648 -0.056,0.312 -0.2,0.56 -0.144,0.24 -0.384,0.384 -0.24,0.144 -0.592,0.144 -0.35199,0 -0.592,-0.144 -0.24,-0.144 -0.384,-0.384 -0.14399,-0.248 -0.208,-0.56 -0.056,-0.312 -0.056,-0.648 z m -0.704,0 q 0,0.544 0.168,0.928 0.176,0.376 0.456,0.616 0.28,0.232 0.624,0.328 0.352,0.096 0.696,0.096 0.352,0 0.696,-0.096 0.344,-0.096 0.624,-0.328 0.28,-0.24 0.448,-0.616 0.176,-0.384 0.176,-0.928 0,-0.544 -0.176,-0.92 -0.168,-0.384 -0.448,-0.616 -0.28,-0.24 -0.624,-0.344 -0.344,-0.112 -0.696,-0.112 -0.344,0 -0.696,0.112 -0.344,0.104 -0.624,0.344 -0.28,0.232 -0.456,0.616 -0.168,0.376 -0.168,0.92 z m -0.51187,-1.256 0.056,-0.04 q 0,-0.16 0.008,-0.352 0.008,-0.2 0.048,-0.296 -0.08,-0.032 -0.136,-0.04 -0.048,-0.008 -0.12,-0.008 -0.584,0 -1.056,0.864 l -0.016,-0.008 q 0,-0.152 0,-0.32 0.008,-0.168 0.04,-0.456 -0.088,0.016 -0.168,0.032 -0.08,0.008 -0.152,0.008 -0.088,0 -0.168,-0.008 -0.08,-0.016 -0.168,-0.032 0.024,0.528 0.024,0.936 0.008,0.408 0.008,0.72 l 0,0.256 q 0,0.68 -0.008,1.152 0,0.464 -0.024,0.736 0.16,-0.016 0.336,-0.016 0.16,0 0.32,0.016 -0.024,-0.176 -0.032,-0.456 0,-0.288 0,-0.824 l 0,-0.88 q 0,-0.232 0.056,-0.432 0.056,-0.208 0.16,-0.352 0.104,-0.152 0.256,-0.24 0.152,-0.088 0.344,-0.088 0.12,0 0.232,0.04 0.12,0.04 0.16,0.088 z m -4.29638,-0.48 q 0.312,0 0.504,0.136 0.192,0.136 0.296,0.344 0.112,0.208 0.144,0.448 0.04,0.24 0.04,0.456 -0.256,0.008 -0.528,0.016 -0.272,0.008 -0.536,0.008 -0.256,0 -0.528,-0.008 -0.264,-0.008 -0.512,-0.016 0.016,-0.216 0.08,-0.456 0.072,-0.248 0.2,-0.448 0.136,-0.208 0.336,-0.344 0.208,-0.136 0.504,-0.136 z m -1.848,1.848 q 0,0.4 0.136,0.744 0.144,0.344 0.4,0.6 0.264,0.248 0.616,0.384 0.36,0.128 0.792,0.128 0.384,0 0.736,-0.136 0.36,-0.136 0.6,-0.328 l 0.048,-0.392 -0.04,-0.024 q -0.104,0.12 -0.248,0.224 -0.136,0.104 -0.296,0.184 -0.16,0.072 -0.328,0.12 -0.168,0.04 -0.328,0.04 -0.336,0 -0.592,-0.112 -0.256,-0.12 -0.432,-0.312 -0.176,-0.2 -0.272,-0.472 -0.088,-0.272 -0.088,-0.584 l 0,-0.104 q 0,-0.08 0.008,-0.12 0.264,-0.008 0.52,-0.016 0.264,-0.008 0.528,-0.008 0.432,0 0.856,0.008 0.424,0.008 0.856,0.016 0.008,-0.08 0.008,-0.152 0.008,-0.08 0.008,-0.16 0,-0.336 -0.104,-0.632 -0.096,-0.296 -0.30399,-0.512 -0.20801,-0.224 -0.52001,-0.352 -0.304,-0.136 -0.728,-0.136 -0.896,0 -1.368,0.56 -0.464,0.56 -0.464,1.544 z m -1.51712,-0.472 0,0.488 q 0,0.464 -0.024,0.904 -0.016,0.44 -0.032,0.856 0.16,-0.016 0.328,-0.016 0.176,0 0.336,0.016 -0.008,-0.112 -0.016,-0.232 0,-0.128 0,-0.256 l 0,-0.52 q 0,-0.408 0.016,-0.768 0.016,-0.368 0.016,-0.712 0,-0.416 -0.12,-0.68 -0.112,-0.272 -0.296,-0.424 -0.184,-0.16 -0.416,-0.224 -0.224,-0.064 -0.448,-0.064 -0.432,0 -0.744,0.192 -0.312,0.184 -0.536,0.528 l -0.016,0 q 0,-0.32 0.024,-0.64 -0.104,0.016 -0.184,0.032 -0.072,0.008 -0.136,0.008 -0.136,0 -0.36,-0.04 0.04,0.344 0.048,0.744 0.016,0.392 0.016,0.752 l 0,0.832 q 0,0.36 -0.016,0.76 -0.008,0.392 -0.048,0.712 0.184,-0.016 0.36,-0.016 0.176,0 0.36,0.016 -0.04,-0.32 -0.056,-0.712 -0.008,-0.4 -0.008,-0.76 l 0,-0.68 q 0,-0.624 0.256,-0.968 0.264,-0.344 0.824,-0.344 0.408,0 0.64,0.312 0.232,0.304 0.232,0.904 z m -5.07238,-1.376 q 0.312,0 0.504,0.136 0.192,0.136 0.296,0.344 0.112,0.208 0.144,0.448 0.04,0.24 0.04,0.456 -0.256,0.008 -0.528,0.016 -0.272,0.008 -0.536,0.008 -0.256,0 -0.528,-0.008 -0.264,-0.008 -0.512,-0.016 0.016,-0.216 0.08,-0.456 0.072,-0.248 0.2,-0.448 0.136,-0.208 0.336,-0.344 0.208,-0.136 0.504,-0.136 z m -1.848,1.848 q 0,0.4 0.136,0.744 0.144,0.344 0.4,0.6 0.264,0.248 0.616,0.384 0.36,0.128 0.792,0.128 0.384,0 0.736,-0.136 0.36,-0.136 0.6,-0.328 l 0.048,-0.392 -0.04,-0.024 q -0.104,0.12 -0.248,0.224 -0.136,0.104 -0.296,0.184 -0.16,0.072 -0.328,0.12 -0.168,0.04 -0.328,0.04 -0.336,0 -0.592,-0.112 -0.256,-0.12 -0.432,-0.312 -0.176,-0.2 -0.272,-0.472 -0.088,-0.272 -0.088,-0.584 l 0,-0.104 q 0,-0.08 0.008,-0.12 0.264,-0.008 0.52,-0.016 0.264,-0.008 0.528,-0.008 0.432,0 0.856,0.008 0.424,0.008 0.856,0.016 0.008,-0.08 0.008,-0.152 0.008,-0.08 0.008,-0.16 0,-0.336 -0.104,-0.632 -0.096,-0.296 -0.30399,-0.512 -0.20801,-0.224 -0.52001,-0.352 -0.304,-0.136 -0.728,-0.136 -0.896,0 -1.368,0.56 -0.464,0.56 -0.464,1.544 z m -1.04,2.624 q 0,0.272 -0.112,0.464 -0.112,0.2 -0.296,0.328 -0.176,0.128 -0.408,0.192 -0.232,0.064 -0.472,0.064 -0.248,0 -0.464,-0.056 -0.216,-0.056 -0.376,-0.176 -0.152,-0.12 -0.248,-0.312 -0.088,-0.192 -0.088,-0.464 0,-0.512 0.32801,-0.712 0.32799,-0.192 0.92799,-0.192 0.648,0 0.928,0.192 0.28,0.192 0.28,0.672 z m -0.432,-3.464 q 0,0.224 -0.056,0.432 -0.048,0.2 -0.15999,0.36 -0.10401,0.152 -0.27201,0.248 -0.16,0.088 -0.392,0.088 -0.464,0 -0.688,-0.288 -0.216,-0.296 -0.216,-0.8 0,-0.488 0.24,-0.776 0.24,-0.296 0.672,-0.296 0.392,0 0.632,0.264 0.24,0.264 0.24,0.768 z m -2.408,0.04 q 0,0.44 0.208,0.736 0.208,0.288 0.576,0.448 l 0,0.016 q -0.096,0.016 -0.2,0.072 -0.104,0.056 -0.184,0.144 -0.08,0.088 -0.136,0.2 -0.048,0.112 -0.048,0.248 0,0.232 0.12799,0.4 0.12801,0.168 0.376,0.24 l 0,0.016 q -0.16,0.04 -0.312,0.12 -0.152,0.08 -0.272,0.216 -0.12,0.136 -0.19999,0.312 -0.072,0.176 -0.072,0.384 0,0.536 0.448,0.84 0.448,0.312 1.224,0.312 0.504,0 0.864,-0.152 0.36,-0.152 0.584,-0.384 0.23201,-0.232 0.336,-0.52 0.112,-0.288 0.112,-0.568 0,-0.208 -0.08,-0.384 -0.072,-0.176 -0.24,-0.312 -0.16,-0.136 -0.424,-0.216 -0.256,-0.08 -0.624,-0.088 -0.224,-0.008 -0.44,-0.008 -0.216,-0.008 -0.44,-0.016 -0.272,-0.008 -0.376,-0.104 -0.096,-0.096 -0.096,-0.304 0,-0.16 0.12,-0.264 0.12801,-0.104 0.272,-0.104 0.11201,0 0.216,0.008 0.112,0.008 0.224,0.008 0.68,0 1.08,-0.336 0.408,-0.344 0.408,-0.944 0,-0.304 -0.152,-0.584 -0.152,-0.288 -0.4,-0.424 l 0.016,-0.016 q 0.216,0.008 0.432,0.032 0.224,0.016 0.456,0.032 -0.008,-0.04 -0.016,-0.08 0,-0.048 0,-0.088 0,-0.04 0,-0.08 0.008,-0.048 0.016,-0.088 -0.2,0.04 -0.648,0.04 -0.088,0 -0.232,-0.008 -0.144,-0.008 -0.328,-0.024 -0.21599,-0.016 -0.36,-0.024 -0.136,-0.008 -0.288,-0.008 -0.31199,0 -0.59199,0.08 -0.27201,0.08 -0.488,0.24 -0.20801,0.16 -0.32801,0.408 -0.12,0.24 -0.12,0.576 z m -4.47512,-1.048 q 0.312,0 0.504,0.136 0.192,0.136 0.296,0.344 0.112,0.208 0.144,0.448 0.04,0.24 0.04,0.456 -0.256,0.008 -0.528,0.016 -0.272,0.008 -0.536,0.008 -0.256,0 -0.528,-0.008 -0.264,-0.008 -0.512,-0.016 0.016,-0.216 0.08,-0.456 0.072,-0.248 0.2,-0.448 0.136,-0.208 0.336,-0.344 0.208,-0.136 0.504,-0.136 z m -1.848,1.848 q 0,0.4 0.136,0.744 0.144,0.344 0.4,0.6 0.264,0.248 0.616,0.384 0.36,0.128 0.792,0.128 0.384,0 0.736,-0.136 0.36,-0.136 0.6,-0.328 l 0.048,-0.392 -0.04,-0.024 q -0.104,0.12 -0.248,0.224 -0.136,0.104 -0.296,0.184 -0.16,0.072 -0.328,0.12 -0.168,0.04 -0.328,0.04 -0.336,0 -0.592,-0.112 -0.256,-0.12 -0.432,-0.312 -0.176,-0.2 -0.272,-0.472 -0.088,-0.272 -0.088,-0.584 l 0,-0.104 q 0,-0.08 0.008,-0.12 0.264,-0.008 0.52,-0.016 0.264,-0.008 0.528,-0.008 0.432,0 0.856,0.008 0.424,0.008 0.856,0.016 0.008,-0.08 0.008,-0.152 0.008,-0.08 0.008,-0.16 0,-0.336 -0.104,-0.632 -0.096,-0.296 -0.304,-0.512 -0.208,-0.224 -0.52,-0.352 -0.304,-0.136 -0.728,-0.136 -0.896,0 -1.368,0.56 -0.464,0.56 -0.464,1.544 z m -4.0455,-1.952 0,1.448 q 0,0.272 -0.008,0.592 0,0.32 -0.008,0.632 -0.008,0.312 -0.024,0.592 -0.008,0.28 -0.024,0.464 0.184,-0.016 0.36,-0.016 0.176,0 0.36,0.016 -0.016,-0.176 -0.032,-0.456 -0.008,-0.28 -0.016,-0.576 -0.008,-0.304 -0.016,-0.6 0,-0.296 0,-0.52 0,-0.624 0.256,-0.968 0.264,-0.344 0.824,-0.344 0.408,0 0.64,0.312 0.232,0.304 0.232,0.904 l 0,0.488 q 0,0.464 -0.024,0.904 -0.016,0.44 -0.032,0.856 0.16,-0.016 0.328,-0.016 0.176,0 0.336,0.016 -0.008,-0.112 -0.016,-0.232 0,-0.128 0,-0.256 l 0,-0.52 q 0,-0.408 0.016,-0.768 0.016,-0.368 0.016,-0.712 0,-0.416 -0.12,-0.68 -0.112,-0.272 -0.296,-0.424 -0.184,-0.16 -0.416,-0.224 -0.224,-0.064 -0.448,-0.064 -0.432,0 -0.744,0.192 -0.312,0.184 -0.536,0.528 l -0.016,0 0,-0.608 q 0,-0.264 0,-0.576 0.008,-0.312 0.016,-0.616 0.008,-0.312 0.016,-0.592 0.016,-0.28 0.032,-0.48 -0.224,0.04 -0.36,0.04 -0.136,0 -0.36,-0.04 0.016,0.2 0.024,0.488 0.016,0.28 0.024,0.592 0.008,0.312 0.008,0.632 0.008,0.32 0.008,0.592 z m -1.61038,-1.144 -0.664,0.28 q 0.016,0.256 0.016,0.496 0.008,0.24 0.016,0.4 -0.168,0 -0.528,-0.024 0.008,0.04 0.008,0.08 0.008,0.04 0.008,0.08 0,0.048 -0.008,0.096 0,0.04 -0.008,0.088 0.08,-0.008 0.152,-0.008 0.072,-0.008 0.136,-0.008 l 0.256,0 q 0,0.448 -0.008,0.816 -0.008,0.36 -0.024,0.664 -0.008,0.296 -0.016,0.552 -0.008,0.248 -0.008,0.464 0,0.48 0.24,0.728 0.24001,0.248 0.744,0.248 0.152,0 0.312,-0.04 0.168,-0.032 0.304,-0.056 l 0,-0.192 q -0.08,0.024 -0.192,0.04 -0.104,0.016 -0.168,0.016 -0.24,0 -0.368,-0.104 -0.128,-0.104 -0.192,-0.272 -0.064,-0.176 -0.08,-0.392 -0.008,-0.216 -0.008,-0.44 0,-0.264 0,-0.6 0.008,-0.336 0.016,-0.64 0.008,-0.312 0.016,-0.536 0.016,-0.224 0.024,-0.256 l 0.392,0 q 0.128,0 0.24,0.008 0.112,0 0.216,0.008 -0.008,-0.024 -0.008,-0.08 l 0,-0.088 0,-0.08 q 0,-0.064 0.008,-0.088 -0.28,0.016 -0.52,0.024 -0.23999,0 -0.328,0 0.016,-0.296 0.024,-0.584 0.016,-0.296 0.04,-0.6 l -0.04,0 z m -7.28025,1.144 0,1.448 q 0,0.272 -0.008,0.592 0,0.32 -0.008,0.632 -0.008,0.312 -0.024,0.592 -0.008,0.28 -0.024,0.464 0.184,-0.016 0.36,-0.016 0.176,0 0.36,0.016 -0.016,-0.176 -0.032,-0.456 -0.008,-0.28 -0.016,-0.576 -0.008,-0.304 -0.016,-0.6 0,-0.296 0,-0.52 0,-0.624 0.256,-0.968 0.264,-0.344 0.824,-0.344 0.408,0 0.64,0.312 0.232,0.304 0.232,0.904 l 0,0.488 q 0,0.464 -0.024,0.904 -0.016,0.44 -0.032,0.856 0.16,-0.016 0.328,-0.016 0.176,0 0.336,0.016 -0.008,-0.112 -0.016,-0.232 0,-0.128 0,-0.256 l 0,-0.52 q 0,-0.408 0.016,-0.768 0.016,-0.368 0.016,-0.712 0,-0.416 -0.12,-0.68 -0.112,-0.272 -0.296,-0.424 -0.184,-0.16 -0.416,-0.224 -0.224,-0.064 -0.448,-0.064 -0.432,0 -0.744,0.192 -0.312,0.184 -0.536,0.528 l -0.016,0 0,-0.608 q 0,-0.264 0,-0.576 0.008,-0.312 0.016,-0.616 0.008,-0.312 0.016,-0.592 0.016,-0.28 0.032,-0.48 -0.22399,0.04 -0.36,0.04 -0.136,0 -0.36,-0.04 0.016,0.2 0.024,0.488 0.016,0.28 0.024,0.592 0.008,0.312 0.008,0.632 0.008,0.32 0.008,0.592 z m -1.432,4.576 q 0,0.272 -0.112,0.464 -0.112,0.2 -0.296,0.328 -0.176,0.128 -0.408,0.192 -0.232,0.064 -0.472,0.064 -0.248,0 -0.464,-0.056 -0.216,-0.056 -0.376,-0.176 -0.152,-0.12 -0.248,-0.312 -0.088,-0.192 -0.088,-0.464 0,-0.512 0.32801,-0.712 0.32799,-0.192 0.92799,-0.192 0.648,0 0.928,0.192 0.28,0.192 0.28,0.672 z m -0.432,-3.464 q 0,0.224 -0.056,0.432 -0.048,0.2 -0.15999,0.36 -0.10401,0.152 -0.27201,0.248 -0.16,0.088 -0.392,0.088 -0.464,0 -0.688,-0.288 -0.216,-0.296 -0.216,-0.8 0,-0.488 0.24,-0.776 0.24,-0.296 0.672,-0.296 0.392,0 0.632,0.264 0.24,0.264 0.24,0.768 z m -2.408,0.04 q 0,0.44 0.208,0.736 0.208,0.288 0.576,0.448 l 0,0.016 q -0.096,0.016 -0.2,0.072 -0.104,0.056 -0.184,0.144 -0.08,0.088 -0.136,0.2 -0.048,0.112 -0.048,0.248 0,0.232 0.12799,0.4 0.12801,0.168 0.376,0.24 l 0,0.016 q -0.16,0.04 -0.312,0.12 -0.152,0.08 -0.272,0.216 -0.12,0.136 -0.19999,0.312 -0.072,0.176 -0.072,0.384 0,0.536 0.448,0.84 0.448,0.312 1.224,0.312 0.504,0 0.864,-0.152 0.36,-0.152 0.584,-0.384 0.23201,-0.232 0.336,-0.52 0.112,-0.288 0.112,-0.568 0,-0.208 -0.08,-0.384 -0.072,-0.176 -0.24,-0.312 -0.16,-0.136 -0.424,-0.216 -0.256,-0.08 -0.624,-0.088 -0.224,-0.008 -0.44,-0.008 -0.216,-0.008 -0.44,-0.016 -0.272,-0.008 -0.376,-0.104 -0.096,-0.096 -0.096,-0.304 0,-0.16 0.12,-0.264 0.12801,-0.104 0.272,-0.104 0.11201,0 0.216,0.008 0.112,0.008 0.224,0.008 0.68,0 1.08,-0.336 0.408,-0.344 0.408,-0.944 0,-0.304 -0.152,-0.584 -0.152,-0.288 -0.4,-0.424 l 0.016,-0.016 q 0.216,0.008 0.432,0.032 0.224,0.016 0.456,0.032 -0.008,-0.04 -0.016,-0.08 0,-0.048 0,-0.088 0,-0.04 0,-0.08 0.008,-0.048 0.016,-0.088 -0.2,0.04 -0.648,0.04 -0.088,0 -0.232,-0.008 -0.144,-0.008 -0.328,-0.024 -0.21599,-0.016 -0.36,-0.024 -0.136,-0.008 -0.288,-0.008 -0.31199,0 -0.59199,0.08 -0.27201,0.08 -0.488,0.24 -0.20801,0.16 -0.32801,0.408 -0.12,0.24 -0.12,0.576 z m -4.2295,1.368 q 0,0.624 0.352,0.96 0.36,0.328 0.984,0.328 0.384,0 0.712,-0.176 0.328,-0.184 0.536,-0.568 l 0.016,0 0,0.344 q 0,0.088 -0.008,0.168 0,0.08 -0.008,0.152 0.16,-0.016 0.312,-0.016 0.152,0 0.312,0.016 -0.016,-0.32 -0.024,-0.664 -0.008,-0.344 -0.008,-0.704 0,-0.648 0.008,-1.224 0.008,-0.584 0.048,-1.208 -0.08,0.016 -0.16,0.032 -0.08,0.008 -0.168,0.008 -0.088,0 -0.168,-0.008 -0.08,-0.016 -0.168,-0.032 0.008,0.144 0.008,0.304 0.008,0.16 0.008,0.336 l 0,0.672 q 0,0.472 -0.008,0.744 0,0.272 -0.024,0.432 -0.016,0.16 -0.048,0.256 -0.032,0.096 -0.088,0.232 -0.104,0.216 -0.328,0.368 -0.224,0.144 -0.56,0.144 -0.232,0 -0.408,-0.08 -0.168,-0.088 -0.28,-0.216 -0.104,-0.112 -0.176,-0.328 -0.072,-0.224 -0.072,-0.64 0,-0.6 0.016,-1.168 0.024,-0.576 0.064,-1.056 -0.2,0.04 -0.328,0.04 -0.136,0 -0.33599,-0.04 0.008,0.336 0.008,0.664 0.008,0.328 0.008,0.608 0,0.296 -0.016,0.6 -0.008,0.296 -0.008,0.72 z m -4.07712,-0.68 q 0,-0.336 0.056,-0.648 0.064,-0.312 0.208,-0.552 0.144,-0.248 0.384,-0.392 0.24,-0.144 0.592,-0.144 0.352,0 0.592,0.144 0.24,0.144 0.384,0.392 0.144,0.24 0.2,0.552 0.064,0.312 0.064,0.648 0,0.336 -0.064,0.648 -0.056,0.312 -0.2,0.56 -0.144,0.24 -0.384,0.384 -0.24,0.144 -0.592,0.144 -0.352,0 -0.592,-0.144 -0.24,-0.144 -0.384,-0.384 -0.144,-0.248 -0.208,-0.56 -0.056,-0.312 -0.056,-0.648 z m -0.704,0 q 0,0.544 0.168,0.928 0.176,0.376 0.456,0.616 0.28,0.232 0.624,0.328 0.352,0.096 0.696,0.096 0.352,0 0.696,-0.096 0.344,-0.096 0.624,-0.328 0.28,-0.24 0.448,-0.616 0.176,-0.384 0.176,-0.928 0,-0.544 -0.176,-0.92 -0.168,-0.384 -0.448,-0.616 -0.28,-0.24 -0.624,-0.344 -0.344,-0.112 -0.696,-0.112 -0.344,0 -0.696,0.112 -0.344,0.104 -0.624,0.344 -0.28,0.232 -0.456,0.616 -0.168,0.376 -0.168,0.92 z m -0.51188,-1.256 0.056,-0.04 q 0,-0.16 0.008,-0.352 0.008,-0.2 0.048,-0.296 -0.08,-0.032 -0.136,-0.04 -0.048,-0.008 -0.12,-0.008 -0.584,0 -1.056,0.864 l -0.016,-0.008 q 0,-0.152 0,-0.32 0.008,-0.168 0.04,-0.456 -0.088,0.016 -0.168,0.032 -0.08,0.008 -0.152,0.008 -0.088,0 -0.168,-0.008 -0.08,-0.016 -0.168,-0.032 0.024,0.528 0.024,0.936 0.008,0.408 0.008,0.72 l 0,0.256 q 0,0.68 -0.008,1.152 0,0.464 -0.024,0.736 0.16,-0.016 0.336,-0.016 0.16001,0 0.32,0.016 -0.024,-0.176 -0.032,-0.456 0,-0.288 0,-0.824 l 0,-0.88 q 0,-0.232 0.056,-0.432 0.056,-0.208 0.16,-0.352 0.104,-0.152 0.256,-0.24 0.152,-0.088 0.344,-0.088 0.12,0 0.232,0.04 0.12,0.04 0.16,0.088 z m -6.2055,-0.584 0,1.448 q 0,0.272 -0.008,0.592 0,0.32 -0.008,0.632 -0.008,0.312 -0.024,0.592 -0.008,0.28 -0.024,0.464 0.184,-0.016 0.36,-0.016 0.176,0 0.36,0.016 -0.016,-0.176 -0.032,-0.456 -0.008,-0.28 -0.016,-0.576 -0.008,-0.304 -0.016,-0.6 0,-0.296 0,-0.52 0,-0.624 0.256,-0.968 0.264,-0.344 0.824,-0.344 0.408,0 0.64,0.312 0.232,0.304 0.232,0.904 l 0,0.488 q 0,0.464 -0.024,0.904 -0.016,0.44 -0.032,0.856 0.16,-0.016 0.328,-0.016 0.176,0 0.336,0.016 -0.008,-0.112 -0.016,-0.232 0,-0.128 0,-0.256 l 0,-0.52 q 0,-0.408 0.016,-0.768 0.016,-0.368 0.016,-0.712 0,-0.416 -0.12,-0.68 -0.112,-0.272 -0.296,-0.424 -0.184,-0.16 -0.416,-0.224 -0.224,-0.064 -0.448,-0.064 -0.432,0 -0.744,0.192 -0.312,0.184 -0.536,0.528 l -0.016,0 0,-0.608 q 0,-0.264 0,-0.576 0.008,-0.312 0.016,-0.616 0.008,-0.312 0.016,-0.592 0.016,-0.28 0.032,-0.48 -0.22399,0.04 -0.36,0.04 -0.136,0 -0.36,-0.04 0.016,0.2 0.024,0.488 0.016,0.28 0.024,0.592 0.008,0.312 0.008,0.632 0.008,0.32 0.008,0.592 z m -1.61037,-1.144 -0.664,0.28 q 0.016,0.256 0.016,0.496 0.008,0.24 0.016,0.4 -0.168,0 -0.528,-0.024 0.008,0.04 0.008,0.08 0.008,0.04 0.008,0.08 0,0.048 -0.008,0.096 0,0.04 -0.008,0.088 0.08,-0.008 0.152,-0.008 0.072,-0.008 0.136,-0.008 l 0.256,0 q 0,0.448 -0.008,0.816 -0.008,0.36 -0.024,0.664 -0.008,0.296 -0.016,0.552 -0.008,0.248 -0.008,0.464 0,0.48 0.24,0.728 0.24,0.248 0.744,0.248 0.152,0 0.312,-0.04 0.168,-0.032 0.304,-0.056 l 0,-0.192 q -0.08,0.024 -0.192,0.04 -0.104,0.016 -0.168,0.016 -0.24,0 -0.368,-0.104 -0.128,-0.104 -0.192,-0.272 -0.064,-0.176 -0.08,-0.392 -0.008,-0.216 -0.008,-0.44 0,-0.264 0,-0.6 0.008,-0.336 0.016,-0.64 0.008,-0.312 0.016,-0.536 0.016,-0.224 0.024,-0.256 l 0.392,0 q 0.128,0 0.24,0.008 0.112,0 0.216,0.008 -0.008,-0.024 -0.008,-0.08 l 0,-0.088 0,-0.08 q 0,-0.064 0.008,-0.088 -0.28,0.016 -0.52,0.024 -0.24,0 -0.328,0 0.016,-0.296 0.024,-0.584 0.016,-0.296 0.04,-0.6 l -0.04,0 z m -5.37113,1.248 q 0.312,0 0.504,0.136 0.192,0.136 0.296,0.344 0.112,0.208 0.144,0.448 0.04,0.24 0.04,0.456 -0.256,0.008 -0.528,0.016 -0.272,0.008 -0.536,0.008 -0.256,0 -0.528,-0.008 -0.264,-0.008 -0.512,-0.016 0.016,-0.216 0.08,-0.456 0.072,-0.248 0.2,-0.448 0.136,-0.208 0.336,-0.344 0.208,-0.136 0.504,-0.136 z m -1.848,1.848 q 0,0.4 0.136,0.744 0.144,0.344 0.4,0.6 0.264,0.248 0.616,0.384 0.36,0.128 0.792,0.128 0.384,0 0.736,-0.136 0.36,-0.136 0.6,-0.328 l 0.048,-0.392 -0.04,-0.024 q -0.104,0.12 -0.248,0.224 -0.136,0.104 -0.296,0.184 -0.16,0.072 -0.328,0.12 -0.168,0.04 -0.328,0.04 -0.336,0 -0.592,-0.112 -0.256,-0.12 -0.432,-0.312 -0.176,-0.2 -0.272,-0.472 -0.088,-0.272 -0.088,-0.584 l 0,-0.104 q 0,-0.08 0.008,-0.12 0.264,-0.008 0.52,-0.016 0.264,-0.008 0.528,-0.008 0.432,0 0.856,0.008 0.424,0.008 0.856,0.016 0.008,-0.08 0.008,-0.152 0.008,-0.08 0.008,-0.16 0,-0.336 -0.104,-0.632 -0.096,-0.296 -0.30399,-0.512 -0.20801,-0.224 -0.52001,-0.352 -0.304,-0.136 -0.728,-0.136 -0.896,0 -1.368,0.56 -0.464,0.56 -0.464,1.544 z m -1.69837,-1.952 0,1.448 q 0,0.272 -0.008,0.592 0,0.32 -0.008,0.632 -0.008,0.312 -0.024,0.592 -0.008,0.28 -0.024,0.464 0.184,-0.016 0.36,-0.016 0.176,0 0.36,0.016 -0.016,-0.184 -0.032,-0.464 -0.008,-0.28 -0.016,-0.592 -0.008,-0.312 -0.016,-0.632 0,-0.32 0,-0.592 l 0,-1.448 q 0,-0.272 0,-0.592 0.008,-0.32 0.016,-0.632 0.008,-0.312 0.016,-0.592 0.016,-0.288 0.032,-0.488 -0.224,0.04 -0.36,0.04 -0.136,0 -0.36,-0.04 0.016,0.2 0.024,0.488 0.016,0.28 0.024,0.592 0.008,0.312 0.008,0.632 0.008,0.32 0.008,0.592 z m -1.86113,1.704 q 0,0.424 -0.088,0.768 -0.088,0.344 -0.248,0.592 -0.152,0.248 -0.36,0.384 -0.208,0.128 -0.456,0.128 -1.168,0 -1.168,-1.608 0,-0.496 0.096,-0.832 0.104,-0.344 0.272,-0.552 0.168,-0.216 0.39201,-0.304 0.23199,-0.096 0.47999,-0.096 0.208,0 0.4,0.104 0.2,0.096 0.344,0.288 0.152,0.192 0.24,0.48 0.096,0.28 0.096,0.648 z m 0.704,0.024 q 0,-0.376 -0.104,-0.712 -0.096,-0.344 -0.296,-0.6 -0.2,-0.256 -0.504,-0.408 -0.304,-0.16 -0.72,-0.16 -0.432,0 -0.76,0.2 -0.328,0.2 -0.6,0.632 l -0.016,0 q 0.008,-0.368 0.016,-0.816 0.008,-0.456 0.016,-0.88 0.008,-0.432 0.024,-0.776 0.016,-0.352 0.04,-0.512 -0.112,0.016 -0.208,0.032 -0.096,0.008 -0.184,0.008 -0.136,0 -0.36,-0.04 0.016,0.2 0.024,0.488 0.016,0.28 0.024,0.592 0.008,0.312 0.008,0.632 0.008,0.32 0.008,0.592 l 0,1.448 q 0,0.272 -0.008,0.592 0,0.32 -0.008,0.632 -0.008,0.304 -0.024,0.576 -0.008,0.272 -0.024,0.464 l 0.144,0 q 0.24801,-0.232 0.536,-0.464 0.16,0.232 0.464,0.4 0.312,0.16 0.696,0.16 0.384,0 0.712,-0.144 0.336,-0.152 0.576,-0.424 0.248,-0.28 0.384,-0.664 0.144,-0.384 0.144,-0.848 z m -5.62675,-3.192 q 0,0.168 0.12,0.288 0.12,0.12 0.288,0.12 0.168,0 0.288,-0.12 0.12,-0.12 0.12,-0.288 0,-0.168 -0.12,-0.288 -0.12,-0.12 -0.288,-0.12 -0.168,0 -0.288,0.12 -0.12,0.12 -0.12,0.288 z m 0.112,2.888 0,0.832 q 0,0.36 -0.016,0.76 -0.008,0.392 -0.048,0.712 0.184,-0.016 0.36,-0.016 0.176,0 0.36,0.016 -0.04,-0.32 -0.056,-0.712 -0.008,-0.4 -0.008,-0.76 l 0,-0.832 q 0,-0.36 0.008,-0.752 0.016,-0.4 0.056,-0.744 -0.224,0.04 -0.36,0.04 -0.136,0 -0.36,-0.04 0.04,0.344 0.048,0.744 0.016,0.392 0.016,0.752 z m -3.35737,1.56 -0.096,0 q 0,0.12 -0.056,0.304 -0.048,0.176 -0.096,0.28 0.168,0.096 0.416,0.168 0.248,0.072 0.616,0.072 0.336,0 0.6,-0.096 0.264,-0.104 0.448,-0.28 0.192,-0.184 0.288,-0.408 0.104,-0.224 0.104,-0.456 0,-0.336 -0.144,-0.528 -0.136,-0.192 -0.344,-0.296 -0.208,-0.112 -0.456,-0.168 -0.248,-0.064 -0.456,-0.144 -0.208,-0.08 -0.352,-0.216 -0.136,-0.144 -0.136,-0.4 0,-0.176 0.064,-0.304 0.064,-0.128 0.16,-0.208 0.096,-0.08 0.216,-0.12 0.12,-0.04 0.24,-0.04 0.272,0 0.456,0.152 0.184,0.152 0.248,0.344 l 0.096,0 q 0.016,-0.096 0.072,-0.272 0.056,-0.176 0.12,-0.296 -0.184,-0.064 -0.392,-0.144 -0.2,-0.08 -0.496,-0.08 -0.32,0 -0.568,0.096 -0.248,0.088 -0.416,0.248 -0.168,0.16 -0.256,0.384 -0.088,0.216 -0.088,0.48 0,0.336 0.136,0.528 0.144,0.192 0.352,0.312 0.208,0.112 0.456,0.176 0.248,0.064 0.456,0.152 0.208,0.08 0.344,0.216 0.144,0.128 0.144,0.376 0,0.176 -0.064,0.312 -0.064,0.136 -0.176,0.224 -0.104,0.088 -0.248,0.136 -0.136,0.048 -0.288,0.048 -0.168,0 -0.32,-0.056 -0.144,-0.056 -0.264,-0.136 -0.112,-0.088 -0.2,-0.184 -0.08,-0.096 -0.12,-0.176 z m -3.10938,0 -0.096,0 q 0,0.12 -0.056,0.304 -0.048,0.176 -0.096,0.28 0.168,0.096 0.416,0.168 0.248,0.072 0.616,0.072 0.336,0 0.6,-0.096 0.264,-0.104 0.448,-0.28 0.19201,-0.184 0.288,-0.408 0.104,-0.224 0.104,-0.456 0,-0.336 -0.144,-0.528 -0.136,-0.192 -0.344,-0.296 -0.208,-0.112 -0.45599,-0.168 -0.24801,-0.064 -0.45601,-0.144 -0.208,-0.08 -0.352,-0.216 -0.136,-0.144 -0.136,-0.4 0,-0.176 0.064,-0.304 0.064,-0.128 0.16,-0.208 0.096,-0.08 0.216,-0.12 0.12,-0.04 0.24,-0.04 0.272,0 0.456,0.152 0.184,0.152 0.248,0.344 l 0.096,0 q 0.016,-0.096 0.072,-0.272 0.056,-0.176 0.12,-0.296 -0.184,-0.064 -0.392,-0.144 -0.2,-0.08 -0.496,-0.08 -0.32,0 -0.568,0.096 -0.24799,0.088 -0.416,0.248 -0.168,0.16 -0.256,0.384 -0.088,0.216 -0.088,0.48 0,0.336 0.13599,0.528 0.144,0.192 0.35201,0.312 0.20799,0.112 0.45599,0.176 0.248,0.064 0.456,0.152 0.208,0.08 0.34401,0.216 0.14399,0.128 0.14399,0.376 0,0.176 -0.064,0.312 -0.064,0.136 -0.176,0.224 -0.104,0.088 -0.248,0.136 -0.136,0.048 -0.288,0.048 -0.168,0 -0.32,-0.056 -0.144,-0.056 -0.264,-0.136 -0.112,-0.088 -0.2,-0.184 -0.08,-0.096 -0.12,-0.176 z m -4.03712,-1.144 q 0,-0.336 0.056,-0.648 0.064,-0.312 0.208,-0.552 0.144,-0.248 0.384,-0.392 0.24,-0.144 0.592,-0.144 0.352,0 0.592,0.144 0.24,0.144 0.384,0.392 0.144,0.24 0.2,0.552 0.064,0.312 0.064,0.648 0,0.336 -0.064,0.648 -0.056,0.312 -0.2,0.56 -0.144,0.24 -0.384,0.384 -0.24,0.144 -0.592,0.144 -0.352,0 -0.592,-0.144 -0.24,-0.144 -0.384,-0.384 -0.144,-0.248 -0.208,-0.56 -0.056,-0.312 -0.056,-0.648 z m -0.704,0 q 0,0.544 0.168,0.928 0.176,0.376 0.456,0.616 0.28,0.232 0.624,0.328 0.352,0.096 0.696,0.096 0.352,0 0.696,-0.096 0.344,-0.096 0.624,-0.328 0.28,-0.24 0.448,-0.616 0.176,-0.384 0.176,-0.928 0,-0.544 -0.176,-0.92 -0.168,-0.384 -0.448,-0.616 -0.28,-0.24 -0.624,-0.344 -0.344,-0.112 -0.696,-0.112 -0.344,0 -0.696,0.112 -0.344,0.104 -0.624,0.344 -0.28,0.232 -0.456,0.616 -0.168,0.376 -0.168,0.92 z m -4.21313,0.416 0,1.296 q 0,0.256 -0.008,0.568 0,0.32 -0.008,0.632 -0.008,0.312 -0.024,0.592 -0.008,0.288 -0.024,0.488 0.224,-0.04 0.36,-0.04 0.136,0 0.36,0.04 -0.016,-0.2 -0.032,-0.488 -0.008,-0.28 -0.016,-0.592 -0.008,-0.312 -0.016,-0.632 0,-0.312 0,-0.568 l 0,-0.504 0.016,0 q 0.376,0.76 1.256,0.76 0.312,0 0.624,-0.112 0.312,-0.12 0.552,-0.368 0.248,-0.248 0.4,-0.624 0.152,-0.376 0.152,-0.888 0,-0.512 -0.144,-0.88 -0.136,-0.376 -0.368,-0.616 -0.224,-0.24 -0.52,-0.352 -0.296,-0.12 -0.6,-0.12 -0.296,0 -0.528,0.088 -0.232,0.088 -0.4,0.224 -0.16,0.128 -0.264,0.28 -0.104,0.144 -0.16,0.272 l -0.016,0 q 0,-0.192 0.016,-0.384 0.016,-0.192 0.048,-0.4 -0.224,0.04 -0.36,0.04 -0.136,0 -0.36,-0.04 0.016,0.208 0.024,0.496 0.016,0.288 0.024,0.608 0.008,0.312 0.008,0.632 0.008,0.32 0.008,0.592 z m 2.888,-0.448 q 0,0.36 -0.072,0.68 -0.064,0.312 -0.20801,0.552 -0.136,0.232 -0.352,0.368 -0.208,0.128 -0.496,0.128 -1.168,0 -1.168,-1.664 0,-0.344 0.064,-0.648 0.064,-0.312 0.208,-0.536 0.144,-0.232 0.368,-0.368 0.232,-0.136 0.552,-0.136 0.192,0 0.392,0.072 0.2,0.072 0.352,0.264 0.16,0.184 0.256,0.496 0.104,0.312 0.104,0.792 z m -7.48312,-1.704 q 0.312,0 0.504,0.136 0.192,0.136 0.296,0.344 0.112,0.208 0.144,0.448 0.04,0.24 0.04,0.456 -0.256,0.008 -0.528,0.016 -0.272,0.008 -0.536,0.008 -0.256,0 -0.528,-0.008 -0.264,-0.008 -0.512,-0.016 0.016,-0.216 0.08,-0.456 0.072,-0.248 0.2,-0.448 0.136,-0.208 0.336,-0.344 0.208,-0.136 0.504,-0.136 z m -1.848,1.848 q 0,0.4 0.136,0.744 0.144,0.344 0.4,0.6 0.264,0.248 0.616,0.384 0.36,0.128 0.792,0.128 0.384,0 0.736,-0.136 0.36,-0.136 0.6,-0.328 l 0.048,-0.392 -0.04,-0.024 q -0.104,0.12 -0.248,0.224 -0.136,0.104 -0.296,0.184 -0.16,0.072 -0.328,0.12 -0.168,0.04 -0.328,0.04 -0.336,0 -0.592,-0.112 -0.256,-0.12 -0.432,-0.312 -0.176,-0.2 -0.272,-0.472 -0.088,-0.272 -0.088,-0.584 l 0,-0.104 q 0,-0.08 0.008,-0.12 0.264,-0.008 0.52,-0.016 0.264,-0.008 0.528,-0.008 0.432,0 0.856,0.008 0.424,0.008 0.856,0.016 0.008,-0.08 0.008,-0.152 0.008,-0.08 0.008,-0.16 0,-0.336 -0.104,-0.632 -0.096,-0.296 -0.304,-0.512 -0.208,-0.224 -0.52,-0.352 -0.304,-0.136 -0.728,-0.136 -0.896,0 -1.368,0.56 -0.464,0.56 -0.464,1.544 z m -3.6775,-0.04 q 0,-0.36 0.064,-0.672 0.072,-0.32 0.208,-0.552 0.144,-0.24 0.352,-0.368 0.216,-0.136 0.504,-0.136 0.576,0 0.872,0.408 0.296,0.4 0.296,1.168 0,0.32 -0.072,0.64 -0.064,0.32 -0.216,0.576 -0.144,0.248 -0.368,0.408 -0.224,0.152 -0.536,0.152 -0.192,0 -0.392,-0.072 -0.2,-0.072 -0.36,-0.256 -0.152,-0.192 -0.256,-0.504 -0.096,-0.312 -0.096,-0.792 z m 2.288,1.056 -0.024,0.76 q 0.16,-0.016 0.304,-0.016 0.152,0 0.312,0.016 -0.008,-0.464 -0.016,-0.904 -0.008,-0.44 -0.008,-0.992 0,-0.512 0.008,-1.128 0.008,-0.616 0.016,-1.2 0.016,-0.584 0.032,-1.064 0.016,-0.488 0.04,-0.744 -0.104,0.016 -0.192,0.032 -0.08,0.008 -0.168,0.008 -0.088,0 -0.176,-0.008 -0.088,-0.016 -0.184,-0.032 0.008,0.192 0.008,0.44 0.008,0.248 0.008,0.528 0.008,0.28 0.008,0.592 0.008,0.304 0.008,0.608 l 0,0.784 -0.016,0 q -0.344,-0.8 -1.232,-0.8 -0.312,0 -0.624,0.128 -0.304,0.12 -0.552,0.376 -0.24,0.248 -0.392,0.624 -0.152,0.376 -0.152,0.888 0,0.52 0.136,0.896 0.144,0.368 0.368,0.608 0.232,0.232 0.52,0.336 0.296,0.104 0.6,0.104 0.296,0 0.52,-0.08 0.224,-0.08 0.384,-0.208 0.168,-0.128 0.272,-0.272 0.112,-0.152 0.176,-0.28 l 0.016,0 z m -4.64837,-1.232 -0.032,1.2 q -0.13601,0.224 -0.39201,0.392 -0.24799,0.168 -0.55199,0.168 -0.264,0 -0.48001,-0.192 -0.21599,-0.192 -0.21599,-0.568 0,-0.224 0.08,-0.368 0.088,-0.144 0.224,-0.24 0.14399,-0.096 0.32,-0.152 0.18399,-0.056 0.36799,-0.088 0.18401,-0.04 0.36,-0.072 0.18401,-0.032 0.32001,-0.08 z m -1.976,-1.424 0,0.416 0.088,0 q 0.13601,-0.256 0.408,-0.4 0.28001,-0.144 0.60001,-0.144 0.24,0 0.408,0.088 0.168,0.08 0.272,0.216 0.10399,0.136 0.152,0.32 0.048,0.184 0.048,0.384 0,0.12 -0.024,0.2 -0.024,0.072 -0.14401,0.128 -0.11199,0.056 -0.36,0.112 -0.23999,0.048 -0.67199,0.12 -0.528,0.088 -0.832,0.352 -0.296,0.264 -0.296,0.744 0,0.232 0.088,0.416 0.096,0.176 0.24,0.304 0.152,0.128 0.34399,0.184 0.19201,0.056 0.39201,0.056 0.408,0 0.68799,-0.136 0.28,-0.136 0.56801,-0.424 0.024,0.208 0.16,0.344 0.13599,0.128 0.39199,0.128 0.16,0 0.288,-0.024 0.13601,-0.024 0.22401,-0.064 l 0,-0.176 q -0.04,0.024 -0.088,0.032 -0.04,0 -0.08,0 -0.12,0 -0.18401,-0.056 -0.056,-0.056 -0.088,-0.136 -0.032,-0.088 -0.04,-0.192 0,-0.112 0,-0.208 0,-0.504 0.016,-0.952 0.016,-0.456 0.016,-0.912 0,-0.264 -0.096,-0.48 -0.096,-0.224 -0.264,-0.376 -0.168,-0.16 -0.408,-0.24 -0.24001,-0.088 -0.528,-0.088 -0.32,0 -0.624,0.096 -0.304,0.096 -0.664,0.368 z m -6.50138,-2.184 -0.136,0 q -0.064,0.64 -0.152,1.352 -0.088,0.704 -0.192,1.432 -0.104,0.728 -0.216,1.448 -0.112,0.72 -0.216,1.368 0.128,-0.016 0.28,-0.016 0.152,0 0.28,0.016 0,-0.32 0.04,-0.816 0.04,-0.504 0.096,-1.064 0.056,-0.568 0.12,-1.144 0.072,-0.584 0.128,-1.08 l 0.016,0 q 0.528,1.056 1.048,2.072 0.528,1.008 1.008,2.016 l 0.072,0 q 0.48,-1.088 1.008,-2.08 0.536,-1 1.088,-2.008 l 0.016,0 q 0.128,1.04 0.216,2.04 0.088,1 0.176,2.064 0.096,-0.016 0.184,-0.016 0.096,0 0.192,0 0.096,0 0.184,0 0.096,0 0.192,0.016 -0.096,-0.664 -0.176,-1.336 -0.08,-0.68 -0.16,-1.368 -0.08,-0.696 -0.16,-1.408 -0.072,-0.72 -0.16,-1.488 l -0.104,0 q -0.2,0.368 -0.432,0.792 -0.232,0.424 -0.472,0.864 -0.232,0.44 -0.464,0.872 -0.224,0.424 -0.424,0.792 -0.2,0.368 -0.352,0.656 -0.152,0.28 -0.232,0.432 -0.616,-1.128 -1.184,-2.2 -0.56,-1.072 -1.112,-2.208 z m -5.05862,-0.416 0,7.984 0.41599,0 0,-7.984 -0.41599,0 z m -3.57863,2.872 0.056,-0.04 q 0,-0.16 0.008,-0.352 0.008,-0.2 0.048,-0.296 -0.08,-0.032 -0.136,-0.04 -0.048,-0.008 -0.12,-0.008 -0.584,0 -1.056,0.864 l -0.016,-0.008 q 0,-0.152 0,-0.32 0.008,-0.168 0.04,-0.456 -0.088,0.016 -0.168,0.032 -0.08,0.008 -0.152,0.008 -0.088,0 -0.168,-0.008 -0.08,-0.016 -0.168,-0.032 0.024,0.528 0.024,0.936 0.008,0.408 0.008,0.72 l 0,0.256 q 0,0.68 -0.008,1.152 0,0.464 -0.024,0.736 0.16,-0.016 0.336,-0.016 0.16,0 0.32,0.016 -0.024,-0.176 -0.032,-0.456 0,-0.288 0,-0.824 l 0,-0.88 q 0,-0.232 0.056,-0.432 0.056,-0.208 0.16,-0.352 0.104,-0.152 0.256,-0.24 0.152,-0.088 0.344,-0.088 0.12,0 0.232,0.04 0.12,0.04 0.16,0.088 z m -4.296375,-0.48 q 0.312,0 0.504005,0.136 0.19199,0.136 0.29599,0.344 0.11201,0.208 0.14401,0.448 0.04,0.24 0.04,0.456 -0.256,0.008 -0.52799,0.016 -0.272005,0.008 -0.536005,0.008 -0.256,0 -0.528,-0.008 -0.264,-0.008 -0.512,-0.016 0.016,-0.216 0.08,-0.456 0.072,-0.248 0.2,-0.448 0.136,-0.208 0.336,-0.344 0.208,-0.136 0.504,-0.136 z m -1.848,1.848 q 0,0.4 0.136,0.744 0.144,0.344 0.4,0.6 0.264,0.248 0.616,0.384 0.36,0.128 0.792,0.128 0.384005,0 0.735995,-0.136 0.36,-0.136 0.60001,-0.328 l 0.048,-0.392 -0.04,-0.024 q -0.10399,0.12 -0.248,0.224 -0.136,0.104 -0.29599,0.184 -0.16,0.072 -0.32801,0.12 -0.16799,0.04 -0.327995,0.04 -0.336,0 -0.592,-0.112 -0.256,-0.12 -0.432,-0.312 -0.176,-0.2 -0.272,-0.472 -0.088,-0.272 -0.088,-0.584 l 0,-0.104 q 0,-0.08 0.008,-0.12 0.264,-0.008 0.52,-0.016 0.264,-0.008 0.528,-0.008 0.432,0 0.856005,0.008 0.42399,0.008 0.85599,0.016 0.008,-0.08 0.008,-0.152 0.008,-0.08 0.008,-0.16 0,-0.336 -0.104,-0.632 -0.096,-0.296 -0.304,-0.512 -0.208,-0.224 -0.52,-0.352 -0.304,-0.136 -0.728005,-0.136 -0.896,0 -1.368,0.56 -0.464,0.56 -0.464,1.544 z m -0.511875,-1.368 0.056,-0.04 q 0,-0.16 0.008,-0.352 0.008,-0.2 0.048,-0.296 -0.08,-0.032 -0.136,-0.04 -0.048,-0.008 -0.12,-0.008 -0.584,0 -1.056,0.864 l -0.016,-0.008 q 0,-0.152 0,-0.32 0.008,-0.168 0.04,-0.456 -0.088,0.016 -0.168,0.032 -0.08,0.008 -0.152,0.008 -0.088,0 -0.168,-0.008 -0.08,-0.016 -0.168,-0.032 0.024,0.528 0.024,0.936 0.008,0.408 0.008,0.72 l 0,0.256 q 0,0.68 -0.008,1.152 0,0.464 -0.024,0.736 0.16,-0.016 0.336,-0.016 0.16,0 0.32,0.016 -0.024,-0.176 -0.032,-0.456 0,-0.288 0,-0.824 l 0,-0.88 q 0,-0.232 0.056,-0.432 0.056,-0.208 0.16,-0.352 0.104,-0.152 0.256,-0.24 0.152,-0.088 0.344,-0.088 0.12,0 0.232,0.04 0.12,0.04 0.16,0.088 z m -5.909125,1.256 q 0,-0.336 0.056,-0.648 0.064,-0.312 0.208,-0.552 0.144,-0.248 0.384,-0.392 0.24,-0.144 0.592,-0.144 0.352,0 0.592,0.144 0.24,0.144 0.384,0.392 0.144,0.24 0.2,0.552 0.064,0.312 0.064,0.648 0,0.336 -0.064,0.648 -0.056,0.312 -0.2,0.56 -0.144,0.24 -0.384,0.384 -0.24,0.144 -0.592,0.144 -0.352,0 -0.592,-0.144 -0.24,-0.144 -0.384,-0.384 -0.144,-0.248 -0.208,-0.56 -0.056,-0.312 -0.056,-0.648 z m -0.704,0 q 0,0.544 0.168,0.928 0.176,0.376 0.456,0.616 0.28,0.232 0.624,0.328 0.352,0.096 0.696,0.096 0.352,0 0.696,-0.096 0.344,-0.096 0.624,-0.328 0.28,-0.24 0.448,-0.616 0.176,-0.384 0.176,-0.928 0,-0.544 -0.176,-0.92 -0.168,-0.384 -0.448,-0.616 -0.28,-0.24 -0.624,-0.344 -0.344,-0.112 -0.696,-0.112 -0.344,0 -0.696,0.112 -0.344,0.104 -0.624,0.344 -0.28,0.232 -0.456,0.616 -0.168,0.376 -0.168,0.92 z m -1.698375,-1.84 0,1.448 q 0,0.272 -0.008,0.592 0,0.32 -0.008,0.632 -0.008,0.312 -0.024,0.592 -0.008,0.28 -0.024,0.464 0.184,-0.016 0.36,-0.016 0.176,0 0.36,0.016 -0.016,-0.184 -0.032,-0.464 -0.008,-0.28 -0.016,-0.592 -0.008,-0.312 -0.016,-0.632 0,-0.32 0,-0.592 l 0,-1.448 q 0,-0.272 0,-0.592 0.008,-0.32 0.016,-0.632 0.008,-0.312 0.016,-0.592 0.016,-0.288 0.032,-0.488 -0.224,0.04 -0.36,0.04 -0.136,0 -0.36,-0.04 0.016,0.2 0.024,0.488 0.016,0.28 0.024,0.592 0.008,0.312 0.008,0.632 0.008,0.32 0.008,0.592 z m -4.749125,2.256 0,1.296 q 0,0.256 -0.008,0.568 0,0.32 -0.008,0.632 -0.008,0.312 -0.024,0.592 -0.008,0.288 -0.024,0.488 0.224,-0.04 0.36,-0.04 0.136,0 0.36,0.04 -0.016,-0.2 -0.032,-0.488 -0.008,-0.28 -0.016,-0.592 -0.008,-0.312 -0.016,-0.632 0,-0.312 0,-0.568 l 0,-0.504 0.016,0 q 0.376,0.76 1.256,0.76 0.312,0 0.624,-0.112 0.312,-0.12 0.552,-0.368 0.248,-0.248 0.4,-0.624 0.152,-0.376 0.152,-0.888 0,-0.512 -0.144,-0.88 -0.136,-0.376 -0.368,-0.616 -0.224,-0.24 -0.52,-0.352 -0.296,-0.12 -0.6,-0.12 -0.296,0 -0.528,0.088 -0.232,0.088 -0.4,0.224 -0.16,0.128 -0.264,0.28 -0.104,0.144 -0.16,0.272 l -0.016,0 q 0,-0.192 0.016,-0.384 0.016,-0.192 0.048,-0.4 -0.224,0.04 -0.36,0.04 -0.136,0 -0.36,-0.04 0.016,0.208 0.024,0.496 0.016,0.288 0.024,0.608 0.008,0.312 0.008,0.632 0.008,0.32 0.008,0.592 z m 2.888,-0.448 q 0,0.36 -0.072,0.68 -0.064,0.312 -0.208,0.552 -0.136,0.232 -0.352,0.368 -0.208,0.128 -0.496,0.128 -1.168,0 -1.168,-1.664 0,-0.344 0.064,-0.648 0.064,-0.312 0.208,-0.536 0.144,-0.232 0.368,-0.368 0.232,-0.136 0.552,-0.136 0.192,0 0.392,0.072 0.2,0.072 0.352,0.264 0.16,0.184 0.256,0.496 0.104,0.312 0.104,0.792 z m -5.336,-0.384 q -0.28,-0.384 -0.536,-0.744 -0.248,-0.368 -0.48,-0.752 -0.112,0.016 -0.216,0.032 -0.096,0.008 -0.208,0.008 -0.112,0 -0.216,-0.008 -0.096,-0.016 -0.208,-0.032 0.384,0.504 0.744,0.984 0.368,0.48 0.728,0.968 -0.36,0.48 -0.728,0.944 -0.368,0.456 -0.752,0.904 0.128,-0.016 0.272,-0.016 0.136,0 0.264,0.016 0.272,-0.392 0.552,-0.792 0.288,-0.408 0.584,-0.816 0.288,0.408 0.568,0.816 0.28,0.4 0.544,0.792 0.112,-0.016 0.216,-0.016 0.104,0 0.192,0 0.088,0 0.192,0 0.104,0 0.216,0.016 -0.408,-0.512 -0.8,-1.024 -0.384,-0.52 -0.744,-1.048 0.36,-0.432 0.72,-0.856 0.368,-0.432 0.752,-0.872 -0.176,0.04 -0.272,0.04 -0.072,0 -0.144,-0.008 -0.064,-0.016 -0.136,-0.032 -0.264,0.384 -0.544,0.752 -0.272,0.36 -0.56,0.744 z m -5.288,-1.128 0,1.376 q 0,0.528 -0.024,1.04 -0.016,0.504 -0.04,1.016 0.368,-0.016 0.728,-0.016 0.36,0 0.728,0 0.368,0 0.72,0 0.36,0 0.72,0.016 -0.024,-0.08 -0.024,-0.208 0,-0.056 0,-0.12 0.008,-0.072 0.024,-0.128 -0.192,0.04 -0.456,0.064 -0.256,0.016 -0.552,0.032 -0.288,0.008 -0.592,0.008 -0.296,0 -0.56,0 -0.008,-0.152 -0.016,-0.448 0,-0.296 0,-0.752 l 0,-0.48 0,-0.312 q 0,-0.128 0,-0.208 0.008,-0.088 0.008,-0.16 0.144,0 0.384,0.008 0.248,0 0.52,0.008 0.28,0 0.552,0.016 0.28,0.016 0.488,0.04 -0.024,-0.12 -0.024,-0.24 0,-0.128 0.024,-0.248 -0.176,0.016 -0.376,0.032 -0.192,0.008 -0.424,0.024 -0.232,0.008 -0.512,0.016 -0.28,0.008 -0.632,0.008 0,-0.152 -0.008,-0.448 0,-0.296 0,-0.608 0,-0.296 0.008,-0.528 0.016,-0.232 0.024,-0.488 0.392,0 0.672,0.016 0.28,0.008 0.512,0.024 0.24,0.016 0.448,0.032 0.216,0.016 0.472,0.032 -0.024,-0.12 -0.024,-0.24 0,-0.12 0.024,-0.24 -0.36,0.016 -0.712,0.032 -0.352,0.008 -0.712,0.008 -0.36,0 -0.72,-0.008 -0.352,-0.016 -0.712,-0.032 0.024,0.512 0.04,1.024 0.024,0.512 0.024,1.04 z M 71.628,253.392 q 0.312,0 0.504,0.136 0.192,0.136 0.296,0.344 0.112,0.208 0.144,0.448 0.04,0.24 0.04,0.456 -0.256,0.008 -0.528,0.016 -0.272,0.008 -0.536,0.008 -0.256,0 -0.528,-0.008 -0.264,-0.008 -0.512,-0.016 0.016,-0.216 0.08,-0.456 0.072,-0.248 0.2,-0.448 0.136,-0.208 0.336,-0.344 0.208,-0.136 0.504,-0.136 z m -1.848,1.848 q 0,0.4 0.136,0.744 0.144,0.344 0.4,0.6 0.264,0.248 0.616,0.384 0.36,0.128 0.792,0.128 0.384,0 0.736,-0.136 0.36,-0.136 0.6,-0.328 l 0.048,-0.392 -0.04,-0.024 q -0.104,0.12 -0.248,0.224 -0.136,0.104 -0.296,0.184 -0.16,0.072 -0.328,0.12 -0.168,0.04 -0.328,0.04 -0.336,0 -0.592,-0.112 -0.256,-0.12 -0.432,-0.312 -0.176,-0.2 -0.272,-0.472 -0.088,-0.272 -0.088,-0.584 l 0,-0.104 q 0,-0.08 0.008,-0.12 0.264,-0.008 0.52,-0.016 0.264,-0.008 0.528,-0.008 0.432,0 0.856,0.008 0.424,0.008 0.856,0.016 0.008,-0.08 0.008,-0.152 0.008,-0.08 0.008,-0.16 0,-0.336 -0.104,-0.632 -0.096,-0.296 -0.304,-0.512 -0.208,-0.224 -0.52,-0.352 -0.304,-0.136 -0.728,-0.136 -0.896,0 -1.368,0.56 -0.464,0.56 -0.464,1.544 z m -3.944,-0.112 q 0,0.544 0.168,0.92 0.176,0.376 0.456,0.616 0.28,0.232 0.624,0.336 0.352,0.096 0.696,0.096 0.384,0 0.736,-0.136 0.36,-0.136 0.6,-0.328 0.008,-0.2 0.048,-0.392 l -0.04,-0.024 q -0.104,0.12 -0.248,0.224 -0.136,0.104 -0.296,0.184 -0.16,0.072 -0.328,0.12 -0.168,0.04 -0.328,0.04 -0.68,0 -1.032,-0.416 -0.352,-0.424 -0.352,-1.248 0,-0.368 0.072,-0.68 0.08,-0.32 0.24,-0.552 0.168,-0.232 0.424,-0.36 0.264,-0.136 0.624,-0.136 0.192,0 0.352,0.064 0.16,0.056 0.288,0.152 0.136,0.088 0.232,0.2 0.096,0.104 0.152,0.208 l 0.064,0 q 0.032,-0.144 0.072,-0.272 0.048,-0.136 0.104,-0.256 -0.152,-0.136 -0.504,-0.24 -0.344,-0.112 -0.784,-0.112 -0.384,0 -0.752,0.12 -0.368,0.112 -0.656,0.36 -0.28,0.24 -0.456,0.616 -0.176,0.376 -0.176,0.896 z m -1.573125,-0.36 0,0.488 q 0,0.464 -0.024,0.904 -0.016,0.44 -0.032,0.856 0.16,-0.016 0.328,-0.016 0.176,0 0.336,0.016 -0.008,-0.112 -0.016,-0.232 0,-0.128 0,-0.256 l 0,-0.52 q 0,-0.408 0.016,-0.768 0.016,-0.368 0.016,-0.712 0,-0.416 -0.12,-0.68 -0.112,-0.272 -0.296,-0.424 -0.184,-0.16 -0.416,-0.224 -0.224,-0.064 -0.448,-0.064 -0.432,0 -0.744,0.192 -0.312,0.184 -0.536,0.528 l -0.016,0 q 0,-0.32 0.024,-0.64 -0.104,0.016 -0.184,0.032 -0.072,0.008 -0.136,0.008 -0.136,0 -0.36,-0.04 0.04,0.344 0.048,0.744 0.016,0.392 0.016,0.752 l 0,0.832 q 0,0.36 -0.016,0.76 -0.008,0.392 -0.048,0.712 0.184,-0.016 0.36,-0.016 0.176,0 0.36,0.016 -0.04,-0.32 -0.056,-0.712 -0.008,-0.4 -0.008,-0.76 l 0,-0.68 q 0,-0.624 0.256,-0.968 0.264,-0.344 0.824,-0.344 0.408,0 0.64,0.312 0.232,0.304 0.232,0.904 z M 59.1905,253.392 q 0.312,0 0.504,0.136 0.192,0.136 0.296,0.344 0.112,0.208 0.144,0.448 0.04,0.24 0.04,0.456 -0.256,0.008 -0.528,0.016 -0.272,0.008 -0.536,0.008 -0.256,0 -0.528,-0.008 -0.264,-0.008 -0.512,-0.016 0.016,-0.216 0.08,-0.456 0.072,-0.248 0.2,-0.448 0.136,-0.208 0.336,-0.344 0.208,-0.136 0.504,-0.136 z m -1.848,1.848 q 0,0.4 0.136,0.744 0.144,0.344 0.4,0.6 0.264,0.248 0.616,0.384 0.36,0.128 0.792,0.128 0.384,0 0.736,-0.136 0.36,-0.136 0.6,-0.328 l 0.048,-0.392 -0.04,-0.024 q -0.104,0.12 -0.248,0.224 -0.136,0.104 -0.296,0.184 -0.16,0.072 -0.328,0.12 -0.168,0.04 -0.328,0.04 -0.336,0 -0.592,-0.112 -0.256,-0.12 -0.432,-0.312 -0.176,-0.2 -0.272,-0.472 -0.088,-0.272 -0.088,-0.584 l 0,-0.104 q 0,-0.08 0.008,-0.12 0.264,-0.008 0.52,-0.016 0.264,-0.008 0.528,-0.008 0.432,0 0.856,0.008 0.424,0.008 0.856,0.016 0.008,-0.08 0.008,-0.152 0.008,-0.08 0.008,-0.16 0,-0.336 -0.104,-0.632 -0.096,-0.296 -0.304,-0.512 -0.208,-0.224 -0.52,-0.352 -0.304,-0.136 -0.728,-0.136 -0.896,0 -1.368,0.56 -0.464,0.56 -0.464,1.544 z m -4.1095,0.568 q 0,0.624 0.352,0.96 0.36,0.328 0.984,0.328 0.384,0 0.712,-0.176 0.328,-0.184 0.536,-0.568 l 0.016,0 0,0.344 q 0,0.088 -0.008,0.168 0,0.08 -0.008,0.152 0.16,-0.016 0.312,-0.016 0.152,0 0.312,0.016 -0.016,-0.32 -0.024,-0.664 -0.008,-0.344 -0.008,-0.704 0,-0.648 0.008,-1.224 0.008,-0.584 0.048,-1.208 -0.08,0.016 -0.16,0.032 -0.08,0.008 -0.168,0.008 -0.088,0 -0.168,-0.008 -0.08,-0.016 -0.168,-0.032 0.008,0.144 0.008,0.304 0.008,0.16 0.008,0.336 l 0,0.672 q 0,0.472 -0.008,0.744 0,0.272 -0.024,0.432 -0.016,0.16 -0.048,0.256 -0.032,0.096 -0.088,0.232 -0.104,0.216 -0.328,0.368 -0.224,0.144 -0.56,0.144 -0.232,0 -0.408,-0.08 -0.168,-0.088 -0.28,-0.216 -0.104,-0.112 -0.176,-0.328 -0.072,-0.224 -0.072,-0.64 0,-0.6 0.016,-1.168 0.024,-0.576 0.064,-1.056 -0.2,0.04 -0.328,0.04 -0.136,0 -0.336,-0.04 0.008,0.336 0.008,0.664 0.008,0.328 0.008,0.608 0,0.296 -0.016,0.6 -0.008,0.296 -0.008,0.72 z m -1.1175,1.032 0,-1.296 q 0,-0.272 0,-0.592 0.008,-0.32 0.016,-0.632 0.008,-0.32 0.016,-0.608 0.016,-0.288 0.032,-0.496 -0.224,0.04 -0.36,0.04 -0.136,0 -0.36,-0.04 0.032,0.208 0.048,0.4 0.016,0.192 0.016,0.384 l -0.016,0 q -0.136,-0.368 -0.448,-0.616 -0.312,-0.248 -0.856,-0.248 -0.296,0 -0.6,0.12 -0.296,0.12 -0.536,0.368 -0.24,0.24 -0.392,0.624 -0.152,0.376 -0.152,0.904 0,0.552 0.152,0.928 0.152,0.376 0.392,0.608 0.24,0.224 0.536,0.312 0.304,0.096 0.6,0.096 0.392,0 0.728,-0.2 0.344,-0.2 0.576,-0.656 l 0.016,0 0,0.6 q 0,0.256 -0.008,0.568 0,0.32 -0.008,0.632 -0.008,0.312 -0.024,0.592 -0.008,0.288 -0.024,0.488 0.224,-0.04 0.36,-0.04 0.136,0 0.36,0.04 -0.016,-0.2 -0.032,-0.488 -0.008,-0.28 -0.016,-0.592 -0.008,-0.312 -0.016,-0.632 0,-0.312 0,-0.568 z m -0.592,-1.792 q 0,0.328 -0.08,0.648 -0.072,0.32 -0.232,0.576 -0.152,0.248 -0.384,0.4 -0.224,0.152 -0.528,0.152 -0.264,0 -0.472,-0.12 -0.2,-0.128 -0.336,-0.344 -0.128,-0.216 -0.2,-0.504 -0.064,-0.296 -0.064,-0.64 0,-0.528 0.104,-0.864 0.104,-0.336 0.272,-0.528 0.168,-0.2 0.368,-0.272 0.208,-0.08 0.4,-0.08 0.312,0 0.528,0.136 0.216,0.128 0.352,0.352 0.144,0.216 0.208,0.504 0.064,0.28 0.064,0.584 z m -5.192375,-1.656 q 0.312,0 0.504,0.136 0.192,0.136 0.296,0.344 0.112,0.208 0.144,0.448 0.04,0.24 0.04,0.456 -0.256,0.008 -0.528,0.016 -0.272,0.008 -0.536,0.008 -0.256,0 -0.528,-0.008 -0.264,-0.008 -0.512,-0.016 0.016,-0.216 0.08,-0.456 0.072,-0.248 0.2,-0.448 0.136,-0.208 0.336,-0.344 0.208,-0.136 0.504,-0.136 z m -1.848,1.848 q 0,0.4 0.136,0.744 0.144,0.344 0.4,0.6 0.264,0.248 0.616,0.384 0.36,0.128 0.792,0.128 0.384,0 0.736,-0.136 0.36,-0.136 0.6,-0.328 l 0.048,-0.392 -0.04,-0.024 q -0.104,0.12 -0.248,0.224 -0.136,0.104 -0.296,0.184 -0.16,0.072 -0.328,0.12 -0.168,0.04 -0.328,0.04 -0.336,0 -0.592,-0.112 -0.256,-0.12 -0.432,-0.312 -0.176,-0.2 -0.272,-0.472 -0.088,-0.272 -0.088,-0.584 l 0,-0.104 q 0,-0.08 0.008,-0.12 0.264,-0.008 0.52,-0.016 0.264,-0.008 0.528,-0.008 0.432,0 0.856,0.008 0.424,0.008 0.856,0.016 0.008,-0.08 0.008,-0.152 0.008,-0.08 0.008,-0.16 0,-0.336 -0.104,-0.632 -0.096,-0.296 -0.304,-0.512 -0.208,-0.224 -0.52,-0.352 -0.304,-0.136 -0.728,-0.136 -0.896,0 -1.368,0.56 -0.464,0.56 -0.464,1.544 z m -3.672,0.736 -0.096,0 q -0.024,0.232 -0.056,0.384 -0.024,0.144 -0.096,0.328 0.208,0.168 0.512,0.304 0.312,0.128 0.808,0.128 0.464,0 0.824,-0.128 0.368,-0.136 0.616,-0.376 0.256,-0.248 0.384,-0.576 0.136,-0.328 0.136,-0.696 0,-0.44 -0.192,-0.704 -0.184,-0.264 -0.464,-0.432 -0.28,-0.168 -0.608,-0.28 -0.32,-0.12 -0.6,-0.264 -0.28,-0.152 -0.472,-0.368 -0.184,-0.216 -0.184,-0.592 0,-0.216 0.072,-0.4 0.08,-0.184 0.216,-0.312 0.144,-0.136 0.328,-0.208 0.192,-0.072 0.416,-0.072 0.224,0 0.384,0.08 0.16,0.072 0.272,0.184 0.12,0.112 0.184,0.248 0.072,0.128 0.112,0.24 l 0.096,0 q 0.048,-0.232 0.096,-0.384 0.048,-0.152 0.12,-0.288 -0.24,-0.192 -0.52,-0.28 -0.28,-0.096 -0.664,-0.096 -0.4,0 -0.72,0.112 -0.32,0.112 -0.552,0.312 -0.224,0.2 -0.344,0.48 -0.12,0.272 -0.12,0.608 0,0.472 0.184,0.752 0.192,0.28 0.472,0.464 0.28,0.176 0.6,0.296 0.328,0.12 0.608,0.264 0.28,0.144 0.464,0.36 0.192,0.216 0.192,0.584 0,0.24 -0.08,0.456 -0.08,0.208 -0.232,0.368 -0.144,0.152 -0.36,0.248 -0.208,0.088 -0.472,0.088 -0.256,0 -0.464,-0.072 -0.208,-0.08 -0.368,-0.2 -0.152,-0.12 -0.264,-0.264 -0.104,-0.152 -0.168,-0.296 z m -3.58675,1.888 q 0,0.272 -0.112,0.464 -0.112,0.2 -0.296,0.328 -0.176,0.128 -0.408,0.192 -0.232,0.064 -0.472,0.064 -0.248,0 -0.464,-0.056 -0.216,-0.056 -0.376,-0.176 -0.152,-0.12 -0.248,-0.312 -0.088,-0.192 -0.088,-0.464 0,-0.512 0.328,-0.712 0.328,-0.192 0.928,-0.192 0.648,0 0.928,0.192 0.28,0.192 0.28,0.672 z m -0.432,-3.464 q 0,0.224 -0.056,0.432 -0.048,0.2 -0.16,0.36 -0.104,0.152 -0.272,0.248 -0.16,0.088 -0.392,0.088 -0.464,0 -0.688,-0.288 -0.216,-0.296 -0.216,-0.8 0,-0.488 0.24,-0.776 0.24,-0.296 0.672,-0.296 0.392,0 0.632,0.264 0.24,0.264 0.24,0.768 z m -2.408,0.04 q 0,0.44 0.208,0.736 0.208,0.288 0.576,0.448 l 0,0.016 q -0.096,0.016 -0.2,0.072 -0.104,0.056 -0.184,0.144 -0.08,0.088 -0.136,0.2 -0.048,0.112 -0.048,0.248 0,0.232 0.128,0.4 0.128,0.168 0.376,0.24 l 0,0.016 q -0.16,0.04 -0.312,0.12 -0.152,0.08 -0.272,0.216 -0.12,0.136 -0.2,0.312 -0.072,0.176 -0.072,0.384 0,0.536 0.448,0.84 0.448,0.312 1.224,0.312 0.504,0 0.864,-0.152 0.36,-0.152 0.584,-0.384 0.232,-0.232 0.336,-0.52 0.112,-0.288 0.112,-0.568 0,-0.208 -0.08,-0.384 -0.072,-0.176 -0.24,-0.312 -0.16,-0.136 -0.424,-0.216 -0.256,-0.08 -0.624,-0.088 -0.224,-0.008 -0.44,-0.008 -0.216,-0.008 -0.44,-0.016 -0.272,-0.008 -0.376,-0.104 -0.096,-0.096 -0.096,-0.304 0,-0.16 0.12,-0.264 0.128,-0.104 0.272,-0.104 0.112,0 0.216,0.008 0.112,0.008 0.224,0.008 0.68,0 1.08,-0.336 0.408,-0.344 0.408,-0.944 0,-0.304 -0.152,-0.584 -0.152,-0.288 -0.4,-0.424 l 0.016,-0.016 q 0.216,0.008 0.432,0.032 0.224,0.016 0.456,0.032 -0.008,-0.04 -0.016,-0.08 0,-0.048 0,-0.088 0,-0.04 0,-0.08 0.008,-0.048 0.016,-0.088 -0.2,0.04 -0.648,0.04 -0.088,0 -0.232,-0.008 -0.144,-0.008 -0.328,-0.024 -0.216,-0.016 -0.36,-0.024 -0.136,-0.008 -0.288,-0.008 -0.312,0 -0.592,0.08 -0.272,0.08 -0.488,0.24 -0.208,0.16 -0.328,0.408 -0.12,0.24 -0.12,0.576 z m -1.637125,0.328 0,0.488 q 0,0.464 -0.024,0.904 -0.016,0.44 -0.032,0.856 0.16,-0.016 0.328,-0.016 0.176,0 0.336,0.016 -0.008,-0.112 -0.016,-0.232 0,-0.128 0,-0.256 l 0,-0.52 q 0,-0.408 0.016,-0.768 0.016,-0.368 0.016,-0.712 0,-0.416 -0.12,-0.68 -0.112,-0.272 -0.296,-0.424 -0.184,-0.16 -0.416,-0.224 -0.224,-0.064 -0.448,-0.064 -0.432,0 -0.744,0.192 -0.312,0.184 -0.536,0.528 l -0.016,0 q 0,-0.32 0.024,-0.64 -0.104,0.016 -0.184,0.032 -0.072,0.008 -0.136,0.008 -0.136,0 -0.36,-0.04 0.04,0.344 0.048,0.744 0.016,0.392 0.016,0.752 l 0,0.832 q 0,0.36 -0.016,0.76 -0.008,0.392 -0.048,0.712 0.184,-0.016 0.36,-0.016 0.176,0 0.36,0.016 -0.04,-0.32 -0.056,-0.712 -0.008,-0.4 -0.008,-0.76 l 0,-0.68 q 0,-0.624 0.256,-0.968 0.264,-0.344 0.824,-0.344 0.408,0 0.64,0.312 0.232,0.304 0.232,0.904 z m -4.73075,-2.944 q 0,0.168 0.12,0.288 0.12,0.12 0.288,0.12 0.168,0 0.288,-0.12 0.12,-0.12 0.12,-0.288 0,-0.168 -0.12,-0.288 -0.12,-0.12 -0.288,-0.12 -0.168,0 -0.288,0.12 -0.12,0.12 -0.12,0.288 z m 0.112,2.888 0,0.832 q 0,0.36 -0.016,0.76 -0.008,0.392 -0.048,0.712 0.184,-0.016 0.36,-0.016 0.176,0 0.36,0.016 -0.04,-0.32 -0.056,-0.712 -0.008,-0.4 -0.008,-0.76 l 0,-0.832 q 0,-0.36 0.008,-0.752 0.016,-0.4 0.056,-0.744 -0.224,0.04 -0.36,0.04 -0.136,0 -0.36,-0.04 0.04,0.344 0.048,0.744 0.016,0.392 0.016,0.752 z m -3.357375,1.56 -0.096,0 q 0,0.12 -0.056,0.304 -0.048,0.176 -0.096,0.28 0.168,0.096 0.416,0.168 0.248,0.072 0.616,0.072 0.336,0 0.6,-0.096 0.264,-0.104 0.448,-0.28 0.192,-0.184 0.288,-0.408 0.104,-0.224 0.104,-0.456 0,-0.336 -0.144,-0.528 -0.136,-0.192 -0.344,-0.296 -0.208,-0.112 -0.456,-0.168 -0.248,-0.064 -0.456,-0.144 -0.208,-0.08 -0.352,-0.216 -0.136,-0.144 -0.136,-0.4 0,-0.176 0.064,-0.304 0.064,-0.128 0.16,-0.208 0.096,-0.08 0.216,-0.12 0.12,-0.04 0.24,-0.04 0.272,0 0.456,0.152 0.184,0.152 0.248,0.344 l 0.096,0 q 0.016,-0.096 0.072,-0.272 0.056,-0.176 0.12,-0.296 -0.184,-0.064 -0.392,-0.144 -0.2,-0.08 -0.496,-0.08 -0.32,0 -0.568,0.096 -0.248,0.088 -0.416,0.248 -0.168,0.16 -0.256,0.384 -0.088,0.216 -0.088,0.48 0,0.336 0.136,0.528 0.144,0.192 0.352,0.312 0.208,0.112 0.456,0.176 0.248,0.064 0.456,0.152 0.208,0.08 0.344,0.216 0.144,0.128 0.144,0.376 0,0.176 -0.064,0.312 -0.064,0.136 -0.176,0.224 -0.104,0.088 -0.248,0.136 -0.136,0.048 -0.288,0.048 -0.168,0 -0.32,-0.056 -0.144,-0.056 -0.264,-0.136 -0.112,-0.088 -0.2,-0.184 -0.08,-0.096 -0.12,-0.176 z m -3.109375,0 -0.096,0 q 0,0.12 -0.056,0.304 -0.048,0.176 -0.096,0.28 0.168,0.096 0.416,0.168 0.248,0.072 0.616,0.072 0.336,0 0.6,-0.096 0.264,-0.104 0.448,-0.28 0.192,-0.184 0.288,-0.408 0.104,-0.224 0.104,-0.456 0,-0.336 -0.144,-0.528 -0.136,-0.192 -0.344,-0.296 -0.208,-0.112 -0.456,-0.168 -0.248,-0.064 -0.456,-0.144 -0.208,-0.08 -0.352,-0.216 -0.136,-0.144 -0.136,-0.4 0,-0.176 0.064,-0.304 0.064,-0.128 0.16,-0.208 0.096,-0.08 0.216,-0.12 0.12,-0.04 0.24,-0.04 0.272,0 0.456,0.152 0.184,0.152 0.248,0.344 l 0.096,0 q 0.016,-0.096 0.072,-0.272 0.056,-0.176 0.12,-0.296 -0.184,-0.064 -0.392,-0.144 -0.2,-0.08 -0.496,-0.08 -0.32,0 -0.568,0.096 -0.248,0.088 -0.416,0.248 -0.168,0.16 -0.256,0.384 -0.088,0.216 -0.088,0.48 0,0.336 0.136,0.528 0.144,0.192 0.352,0.312 0.208,0.112 0.456,0.176 0.248,0.064 0.456,0.152 0.208,0.08 0.344,0.216 0.144,0.128 0.144,0.376 0,0.176 -0.064,0.312 -0.064,0.136 -0.176,0.224 -0.104,0.088 -0.248,0.136 -0.136,0.048 -0.288,0.048 -0.168,0 -0.32,-0.056 -0.144,-0.056 -0.264,-0.136 -0.112,-0.088 -0.2,-0.184 -0.08,-0.096 -0.12,-0.176 z m -2.424375,-2.88 q 0.312,0 0.504,0.136 0.192,0.136 0.296,0.344 0.112,0.208 0.144,0.448 0.04,0.24 0.04,0.456 -0.256,0.008 -0.528,0.016 -0.272,0.008 -0.536,0.008 -0.256,0 -0.528,-0.008 -0.264,-0.008 -0.512,-0.016 0.016,-0.216 0.08,-0.456 0.072,-0.248 0.2,-0.448 0.136,-0.208 0.336,-0.344 0.208,-0.136 0.504,-0.136 z m -1.848,1.848 q 0,0.4 0.136,0.744 0.144,0.344 0.4,0.6 0.264,0.248 0.616,0.384 0.36,0.128 0.792,0.128 0.384,0 0.736,-0.136 0.36,-0.136 0.6,-0.328 l 0.048,-0.392 -0.04,-0.024 q -0.104,0.12 -0.248,0.224 -0.136,0.104 -0.296,0.184 -0.16,0.072 -0.328,0.12 -0.168,0.04 -0.328,0.04 -0.336,0 -0.592,-0.112 -0.256,-0.12 -0.432,-0.312 -0.176,-0.2 -0.272,-0.472 -0.088,-0.272 -0.088,-0.584 l 0,-0.104 q 0,-0.08 0.008,-0.12 0.264,-0.008 0.52,-0.016 0.264,-0.008 0.528,-0.008 0.432,0 0.856,0.008 0.424,0.008 0.856,0.016 0.008,-0.08 0.008,-0.152 0.008,-0.08 0.008,-0.16 0,-0.336 -0.104,-0.632 -0.096,-0.296 -0.304,-0.512 -0.208,-0.224 -0.52,-0.352 -0.304,-0.136 -0.728,-0.136 -0.896,0 -1.368,0.56 -0.464,0.56 -0.464,1.544 z m -0.511875,-1.368 0.056,-0.04 q 0,-0.16 0.008,-0.352 0.008,-0.2 0.048,-0.296 -0.08,-0.032 -0.136,-0.04 -0.048,-0.008 -0.12,-0.008 -0.584,0 -1.056,0.864 l -0.016,-0.008 q 0,-0.152 0,-0.32 0.008,-0.168 0.04,-0.456 -0.088,0.016 -0.168,0.032 -0.08,0.008 -0.152,0.008 -0.088,0 -0.168,-0.008 -0.08,-0.016 -0.168,-0.032 0.024,0.528 0.024,0.936 0.008,0.408 0.008,0.72 l 0,0.256 q 0,0.68 -0.008,1.152 0,0.464 -0.024,0.736 0.16,-0.016 0.336,-0.016 0.16,0 0.32,0.016 -0.024,-0.176 -0.032,-0.456 0,-0.288 0,-0.824 l 0,-0.88 q 0,-0.232 0.056,-0.432 0.056,-0.208 0.16,-0.352 0.104,-0.152 0.256,-0.24 0.152,-0.088 0.344,-0.088 0.12,0 0.232,0.04 0.12,0.04 0.16,0.088 z m -5.4375,0.32 0,-2.376 0.72,0 q 0.312,0 0.56,0.048 0.248,0.04 0.416,0.16 0.176,0.12 0.272,0.336 0.096,0.216 0.096,0.56 0,0.408 -0.144,0.672 -0.136,0.256 -0.36,0.408 -0.216,0.144 -0.48,0.2 -0.264,0.056 -0.512,0.056 -0.296,0 -0.568,-0.064 z m -0.656,-0.6 0,1.376 q 0,0.528 -0.024,1.04 -0.016,0.512 -0.04,1.008 0.184,-0.016 0.392,-0.016 0.208,0 0.392,0.016 -0.024,-0.496 -0.048,-1.008 -0.016,-0.512 -0.016,-1.04 l 0,-0.44 q 0.16,0.016 0.312,0.024 0.152,0 0.336,0 0.288,0 0.656,-0.064 0.376,-0.064 0.704,-0.248 0.336,-0.184 0.56,-0.512 0.232,-0.328 0.232,-0.856 0,-0.336 -0.096,-0.56 -0.096,-0.232 -0.256,-0.384 -0.152,-0.152 -0.344,-0.232 -0.192,-0.08 -0.392,-0.12 -0.192,-0.04 -0.368,-0.048 -0.176,-0.008 -0.296,-0.008 -0.088,0 -0.216,0.008 -0.128,0.008 -0.272,0.016 -0.136,0 -0.272,0.008 -0.136,0.008 -0.232,0.008 -0.192,0 -0.392,-0.008 -0.192,-0.016 -0.384,-0.032 0.024,0.528 0.04,1.04 0.024,0.504 0.024,1.032 z" />
  </g>
</svg>
